<svg width="64" height="64" viewBox="0 0 64 64" fill="none" xmlns="http://www.w3.org/2000/svg">
<g clip-path="url(#clip0_2793_1907)">
<path d="M42.6323 26.7264C43.6987 25.6709 44.3606 24.2076 44.3606 22.5922C44.3606 19.3837 41.7497 16.7734 38.5406 16.7734C36.0677 16.7734 33.8759 18.3411 33.0575 20.6382C32.7145 20.575 32.3617 20.5402 32.0005 20.5402C31.6394 20.5402 31.2866 20.575 30.9435 20.6382C30.1251 18.3409 27.9332 16.7734 25.4605 16.7734C22.2513 16.7734 19.6405 19.3837 19.6405 22.5922C19.6405 24.2076 20.3025 25.6709 21.3688 26.7264C18.8108 28.1835 17.1641 30.9428 17.1641 33.9437C17.1641 34.4615 17.5838 34.8812 18.1016 34.8812C18.6193 34.8812 19.0391 34.4615 19.0391 33.9437C19.0391 31.2933 20.6985 28.8865 23.1717 27.9426C23.8747 28.2445 24.6484 28.4123 25.4606 28.4123C25.8184 28.4123 26.1726 28.3778 26.5194 28.3138C26.8157 29.1426 27.2945 29.8851 27.9077 30.4926C25.3265 31.9542 23.7043 34.693 23.7043 37.7108C23.7043 38.2287 24.1241 38.6483 24.6419 38.6483C25.1596 38.6483 25.5794 38.2287 25.5794 37.7108C25.5794 35.1242 27.1189 32.8015 29.5014 31.7938C29.5651 31.7668 29.624 31.7331 29.6783 31.6948C30.3901 32.0059 31.1753 32.1797 32.0005 32.1797C32.813 32.1797 33.5868 32.0118 34.2898 31.7098C36.7619 32.6537 38.4217 35.0629 38.4217 37.7108C38.4217 38.2287 38.8414 38.6483 39.3592 38.6483C39.8769 38.6483 40.2967 38.2287 40.2967 37.7108C40.2967 34.7127 38.6496 31.9512 36.0923 30.4935C36.7061 29.8859 37.1852 29.143 37.4817 28.3138C37.8286 28.3778 38.1827 28.4123 38.5404 28.4123C39.3527 28.4123 40.1263 28.2445 40.8292 27.9426C43.3025 28.8865 44.9618 31.293 44.9618 33.9437C44.9618 34.4615 45.3816 34.8812 45.8994 34.8812C46.4171 34.8812 46.8369 34.4615 46.8369 33.9437C46.8371 30.9426 45.1904 28.1835 42.6323 26.7264ZM26.181 26.36C26.181 26.3969 26.1831 26.4331 26.1837 26.4697C25.9476 26.5137 25.7057 26.5372 25.4606 26.5372C23.2853 26.5372 21.5156 24.7676 21.5156 22.5922C21.5156 20.4177 23.2853 18.6484 25.4606 18.6484C27.1389 18.6484 28.6255 19.7133 29.1788 21.2726C27.3925 22.2673 26.181 24.1745 26.181 26.36ZM28.056 26.36C28.056 24.185 29.8255 22.4153 32.0006 22.4153C34.1758 22.4153 35.9453 24.1849 35.9453 26.36C35.9453 28.5351 34.1758 30.3046 32.0006 30.3046C29.8255 30.3046 28.056 28.535 28.056 26.36ZM37.8174 26.4697C37.8181 26.4331 37.8202 26.3967 37.8202 26.36C37.8202 24.1745 36.6087 22.2675 34.8224 21.2727C35.3757 19.7135 36.8623 18.6486 38.5406 18.6486C40.7158 18.6486 42.4856 20.4177 42.4856 22.5923C42.4856 24.7676 40.7158 26.5374 38.5406 26.5374C38.2954 26.5372 38.0536 26.5137 37.8174 26.4697Z" fill="#222222"/>
<path d="M56.2796 40.5174V23.4764C58.6165 23.0354 60.39 20.9799 60.39 18.5167C60.39 15.733 58.1254 13.4683 55.3416 13.4683C53.8117 13.4683 52.4396 14.1533 51.5131 15.2316L36.7646 6.71591C36.948 6.19354 37.049 5.63253 37.049 5.04815C37.049 2.26464 34.7844 0 32.0007 0C29.2171 0 26.9523 2.26464 26.9523 5.04828C26.9523 5.63266 27.0532 6.19354 27.2367 6.71604L12.4883 15.2316C11.5617 14.1533 10.1896 13.4683 8.65973 13.4683C5.87597 13.4683 3.61133 15.733 3.61133 18.5167C3.61133 20.9799 5.38484 23.0353 7.72173 23.4764V40.5174C5.38484 40.9584 3.61133 43.0139 3.61133 45.477C3.61133 48.2608 5.87597 50.5254 8.65973 50.5254C10.1872 50.5254 11.5574 49.8425 12.4839 48.7673L27.2366 57.2845C27.0532 57.8067 26.9523 58.3676 26.9523 58.9517C26.9523 61.7355 29.217 64.0001 32.0007 64.0001C34.7845 64.0001 37.0491 61.7355 37.0491 58.9517C37.0491 58.3676 36.9483 57.8067 36.7649 57.2845L51.5176 48.7673C52.4441 49.8427 53.8142 50.5254 55.3418 50.5254C58.1255 50.5254 60.3902 48.2608 60.3902 45.477C60.39 43.0138 58.6164 40.9584 56.2796 40.5174ZM55.3416 15.3433C57.0914 15.3433 58.515 16.767 58.515 18.5167C58.515 20.2665 57.0914 21.6901 55.3416 21.6901C53.5919 21.6901 52.1682 20.2665 52.1682 18.5167C52.1682 16.767 53.5919 15.3433 55.3416 15.3433ZM32.0007 1.87501C33.7505 1.87501 35.1741 3.29852 35.1741 5.04828C35.1741 6.79641 33.7531 8.21892 32.0056 8.22155C32.004 8.22155 32.0024 8.2213 32.0007 8.2213C31.9991 8.2213 31.9975 8.22155 31.9959 8.22155C30.2484 8.21892 28.8274 6.79641 28.8274 5.04828C28.8274 3.29852 30.2509 1.87501 32.0007 1.87501ZM5.48634 18.5167C5.48634 16.767 6.90997 15.3433 8.65973 15.3433C10.4095 15.3433 11.8331 16.767 11.8331 18.5167C11.8331 20.2665 10.4095 21.6901 8.65973 21.6901C6.90997 21.6901 5.48634 20.2665 5.48634 18.5167ZM8.65973 48.6503C6.90997 48.6503 5.48634 47.2267 5.48634 45.4769C5.48634 43.7271 6.90997 42.3035 8.65973 42.3035C10.4095 42.3035 11.8331 43.7271 11.8331 45.4769C11.8331 47.2267 10.4095 48.6503 8.65973 48.6503ZM32.0007 62.125C30.251 62.125 28.8274 60.7014 28.8274 58.9516C28.8274 57.2018 30.251 55.7782 32.0007 55.7782C33.7505 55.7782 35.1741 57.2018 35.1741 58.9516C35.1741 60.7014 33.7505 62.125 32.0007 62.125ZM35.8251 55.6618C35.093 54.8118 34.0836 54.2079 32.9381 53.9919V50.3802C32.9381 49.8623 32.5184 49.4427 32.0006 49.4427C31.4829 49.4427 31.0631 49.8623 31.0631 50.3802V53.9919C29.9177 54.2081 28.9083 54.8118 28.1761 55.6618L13.4236 47.1448C13.6071 46.6223 13.708 46.0614 13.708 45.477C13.708 44.8921 13.6069 44.3306 13.4231 43.8078L16.5519 42.0009C17.0003 41.7419 17.1538 41.1685 16.8949 40.7201C16.636 40.2717 16.0627 40.1184 15.6141 40.3771L12.4826 42.1856C11.7505 41.3364 10.7415 40.7331 9.59661 40.5172V23.4765C10.7419 23.2606 11.7511 22.657 12.4833 21.8074L15.619 23.6183C15.7666 23.7035 15.9279 23.744 16.087 23.744C16.4109 23.744 16.726 23.5759 16.8997 23.2753C17.1587 22.8269 17.005 22.2534 16.5567 21.9945L13.4233 20.185C13.6068 19.6624 13.7078 19.1012 13.7078 18.5167C13.7078 17.9347 13.6076 17.376 13.4255 16.8553L28.1761 8.33842C28.9082 9.18818 29.9175 9.79193 31.0627 10.0079V13.6201C31.0627 14.138 31.4825 14.5576 32.0002 14.5576C32.518 14.5576 32.9377 14.138 32.9377 13.6201V10.0079C34.083 9.79193 35.0923 9.18818 35.8244 8.33842L50.575 16.8553C50.393 17.376 50.2927 17.9347 50.2927 18.5167C50.2927 19.1012 50.3937 19.6624 50.5772 20.185L47.4438 21.9945C46.9955 22.2534 46.8418 22.8269 47.1008 23.2753C47.2745 23.5759 47.5896 23.744 47.9135 23.744C48.0725 23.744 48.2338 23.7035 48.3815 23.6183L51.5172 21.8074C52.2495 22.657 53.2587 23.2606 54.4039 23.4765V40.5172C53.259 40.7331 52.2501 41.3364 51.5179 42.1856L48.3863 40.3771C47.938 40.1186 47.3646 40.2717 47.1056 40.7201C46.8466 41.1685 47.0002 41.7419 47.4486 42.0009L50.5774 43.8078C50.3936 44.3306 50.2925 44.8921 50.2925 45.477C50.2925 46.0614 50.3933 46.6224 50.5769 47.1448L35.8251 55.6618ZM55.3416 48.6503C53.5919 48.6503 52.1682 47.2267 52.1682 45.4769C52.1682 43.7271 53.5919 42.3035 55.3416 42.3035C57.0914 42.3035 58.515 43.7271 58.515 45.4769C58.515 47.2267 57.0914 48.6503 55.3416 48.6503Z" fill="#222222"/>
<path d="M39.8525 41.6865H37.0625C36.5447 41.6865 36.125 42.1061 36.125 42.624C36.125 43.1419 36.5447 43.5615 37.0625 43.5615H39.8525C40.3702 43.5615 40.79 43.1419 40.79 42.624C40.79 42.1061 40.3702 41.6865 39.8525 41.6865Z" fill="#222222"/>
<path d="M39.8531 45.3584H24.1484C23.6307 45.3584 23.2109 45.778 23.2109 46.2959C23.2109 46.8138 23.6307 47.2334 24.1484 47.2334H39.8532C40.3709 47.2334 40.7907 46.8138 40.7907 46.2959C40.7907 45.778 40.3708 45.3584 39.8531 45.3584Z" fill="#222222"/>
<path d="M24.1484 43.5615H24.1614C24.6792 43.5615 25.0989 43.1419 25.0989 42.624C25.0989 42.1061 24.6792 41.6865 24.1614 41.6865H24.1484C23.6307 41.6865 23.2109 42.1061 23.2109 42.624C23.2109 43.1419 23.6307 43.5615 24.1484 43.5615Z" fill="#222222"/>
<path d="M27.4095 43.5615C27.9272 43.5615 28.347 43.1419 28.347 42.624C28.347 42.1061 27.9272 41.6865 27.4095 41.6865H27.3965C26.8787 41.6865 26.459 42.1061 26.459 42.624C26.459 43.1419 26.8787 43.5615 27.3965 43.5615H27.4095Z" fill="#222222"/>
<path d="M30.6556 43.5615C31.1733 43.5615 31.5931 43.1419 31.5931 42.624C31.5931 42.1061 31.1733 41.6865 30.6556 41.6865H30.6426C30.1248 41.6865 29.7051 42.1061 29.7051 42.624C29.7051 43.1419 30.1248 43.5615 30.6426 43.5615H30.6556Z" fill="#222222"/>
</g>
<defs>
<clipPath id="clip0_2793_1907">
<rect width="64" height="64" fill="white"/>
</clipPath>
</defs>
</svg>
