<svg width="64" height="65" viewBox="0 0 64 65" fill="none" xmlns="http://www.w3.org/2000/svg">
<g clip-path="url(#clip0_2718_5774)">
<path d="M64.0001 41.3222C64.0001 38.1155 61.8469 35.2614 58.7641 34.3817L49.5622 31.7526V29.0611C50.6892 28.0309 51.5608 26.7292 52.0734 25.2578C53.3333 25.1309 54.5207 24.569 55.3798 23.6233C56.2418 22.6756 56.6885 21.4318 56.6915 20.1548H56.7202V13.9671C56.7202 6.57499 50.7058 0.560547 43.3136 0.560547C35.9215 0.560547 29.907 6.57499 29.907 13.9671V20.1548H29.9357C29.9387 21.4328 30.3864 22.6756 31.2475 23.6233C32.1065 24.5679 33.2939 25.1299 34.5538 25.2578C35.076 26.7564 35.9688 28.0772 37.126 29.1155V31.7526L27.924 34.3817C24.8413 35.2614 22.6881 38.1155 22.6881 41.3222V46.7837C22.0355 46.6165 21.4186 46.3028 20.9277 45.8123L18.6879 43.572C17.9537 42.8368 17.5317 41.8202 17.5317 40.7803C17.5317 39.741 17.9537 38.7243 18.6879 37.9886L19.8974 36.7781C21.0319 35.6446 21.6568 34.137 21.6568 32.5336V32.3363C21.6568 30.8825 21.1286 29.4786 20.1718 28.3834L15.6691 23.2376C14.5275 21.9339 12.8819 21.1861 11.1502 21.1861C9.69491 21.1861 8.2915 21.7143 7.19628 22.6716L3.30532 26.0766C1.2045 27.9146 0 30.5688 0 33.3595C0 35.0177 0.430034 36.6588 1.24277 38.1045C6.6746 47.7601 14.5421 55.9187 23.9968 61.6969L26.3172 63.1149C27.8012 64.0203 29.5037 64.4997 31.2435 64.4997C33.9692 64.4997 36.561 63.3234 38.3541 61.2729L41.8276 57.3024C42.7854 56.2082 43.3136 54.8048 43.3136 53.3495C43.3136 52.9341 43.2683 52.5237 43.1847 52.1244H64.0001V41.3222ZM52.7809 34.8178L49.2042 41.2537L44.8409 37.6175L48.7837 33.6752L52.7809 34.8178ZM53.8535 22.236C53.4975 22.6267 53.0438 22.9022 52.5518 23.0694C52.5775 22.7879 52.5951 22.5054 52.5951 22.2174V17.283C53.7049 17.7035 54.5318 18.6814 54.6431 19.8476C54.7277 20.7344 54.4472 21.5834 53.8535 22.236ZM43.3136 2.6231C49.5683 2.6231 54.6577 7.71251 54.6577 13.9671V16.1173C53.7452 15.4264 52.6117 14.9984 51.3866 14.9984H50.7833C48.2369 14.9984 45.8435 14.0074 44.0428 12.2067L43.3136 11.4781L42.5845 12.2067C40.7838 14.0074 38.3904 14.9984 35.8439 14.9984H35.0634V15.0019C33.9052 15.0387 32.8377 15.4597 31.9696 16.1173V13.9671C31.9696 7.71251 37.059 2.6231 43.3136 2.6231ZM32.7738 22.236C32.1801 21.5834 31.8996 20.7354 31.9842 19.8486C32.0955 18.6824 32.9223 17.7045 34.0321 17.284V22.2174C34.0321 22.5054 34.0498 22.7879 34.0754 23.0694C33.5835 22.9012 33.1298 22.6267 32.7738 22.236ZM36.0947 22.2174V17.0499C38.7655 16.993 41.2893 16.0463 43.3136 14.3357C45.3379 16.0463 47.8617 16.993 50.5326 17.0499V22.2174C50.5326 26.1974 47.2942 29.4363 43.3136 29.4363C39.333 29.4363 36.0947 26.1974 36.0947 22.2174ZM43.3136 31.4988C44.8203 31.4988 46.2393 31.1308 47.4997 30.4902V32.0427L43.3136 36.2287L39.1885 32.1036V30.5194C40.4333 31.1413 41.8307 31.4988 43.3136 31.4988ZM37.8571 33.6883L41.7863 37.6175L37.4231 41.2537L33.8559 34.8324L37.8571 33.6883ZM14.1161 24.5946L18.6189 29.7409C19.2478 30.4595 19.5943 31.3815 19.5943 32.3363V32.5336C19.5943 33.012 19.4996 33.4728 19.3364 33.9094L9.20092 23.7728C9.79209 23.4344 10.4613 23.2486 11.1502 23.2486C12.2867 23.2486 13.3673 23.7396 14.1161 24.5946ZM36.8032 59.9159C35.4008 61.5177 33.374 62.4371 31.2435 62.4371C29.8834 62.4371 28.552 62.063 27.3928 61.3535L25.0724 59.9355C15.9188 54.341 8.29956 46.4423 3.04045 37.0928C2.40094 35.9553 2.06255 34.6642 2.06255 33.3595C2.06255 31.164 3.01024 29.0758 4.6624 27.6295L7.58502 25.073L18.136 35.624L17.2306 36.5309C16.1107 37.6497 15.4692 39.1987 15.4692 40.7803C15.4692 42.3625 16.1107 43.9114 17.2296 45.0303L19.4694 47.2701C20.6039 48.4056 22.1135 49.0306 23.7194 49.0306C25.3252 49.0306 26.8348 48.4056 27.9694 47.2701L28.8757 46.3637L39.4277 56.9157L36.8032 59.9159ZM40.7284 55.2998L30.5919 45.1633C31.0269 45.0016 31.4892 44.9054 31.9676 44.9054H32.1634C33.1182 44.9054 34.0402 45.2524 34.7593 45.8813L39.9051 50.3836C40.7601 51.1314 41.2511 52.2135 41.2511 53.3495C41.2511 54.0399 41.0643 54.7091 40.7284 55.2998ZM61.9375 50.0618H55.7197V42.8429H53.6571V50.0618H42.3236C42.0275 49.6111 41.6771 49.1937 41.2637 48.8316L36.1184 44.3294C35.0221 43.3711 33.6187 42.8429 32.1634 42.8429H31.9676C30.3637 42.8429 28.8561 43.4668 27.7216 44.6013L26.5121 45.8123C26.0201 46.3028 25.4043 46.6165 24.7516 46.7837V41.3222C24.7516 39.0315 26.2895 36.9936 28.491 36.3647L31.82 35.414L36.8299 44.4321L42.2823 39.8885V47.9993H44.3449V39.8885L49.7984 44.4321L54.8163 35.3994L58.1981 36.3657C60.3997 36.9936 61.9375 39.0325 61.9375 41.3232V50.0618Z" fill="#222222"/>
</g>
<defs>
<clipPath id="clip0_2718_5774">
<rect width="64" height="64" fill="white" transform="translate(0 0.5)"/>
</clipPath>
</defs>
</svg>
