<svg width="65" height="65" viewBox="0 0 65 65" fill="none" xmlns="http://www.w3.org/2000/svg">
<g clip-path="url(#clip0_2832_3136)">
<path d="M36.5 44.5H38.5V64.5H36.5V44.5Z" fill="#222222"/>
<path d="M31.5 50.5H33.5V64.5H31.5V50.5Z" fill="#222222"/>
<path d="M32.5 25.5C30.9092 25.4984 29.384 24.8658 28.2591 23.7409C27.1342 22.616 26.5016 21.0908 26.5 19.5V18.5C26.5 16.9087 27.1321 15.3826 28.2574 14.2574C29.3826 13.1321 30.9087 12.5 32.5 12.5C34.0913 12.5 35.6174 13.1321 36.7426 14.2574C37.8679 15.3826 38.5 16.9087 38.5 18.5V19.5C38.4984 21.0908 37.8658 22.616 36.7409 23.7409C35.616 24.8658 34.0908 25.4984 32.5 25.5ZM32.5 14.5C31.4391 14.5 30.4217 14.9214 29.6716 15.6716C28.9214 16.4217 28.5 17.4391 28.5 18.5V19.5C28.5 20.5609 28.9214 21.5783 29.6716 22.3284C30.4217 23.0786 31.4391 23.5 32.5 23.5C33.5609 23.5 34.5783 23.0786 35.3284 22.3284C36.0786 21.5783 36.5 20.5609 36.5 19.5V18.5C36.5 17.4391 36.0786 16.4217 35.3284 15.6716C34.5783 14.9214 33.5609 14.5 32.5 14.5Z" fill="#222222"/>
<path d="M40 48.5C39.0717 48.5 38.1815 48.1313 37.5251 47.4749C36.8687 46.8185 36.5 45.9283 36.5 45V35.5H38.5V45C38.5 45.3978 38.658 45.7794 38.9393 46.0607C39.2206 46.342 39.6022 46.5 40 46.5C40.3978 46.5 40.7794 46.342 41.0607 46.0607C41.342 45.7794 41.5 45.3978 41.5 45V31.5C41.5 30.7044 41.1839 29.9413 40.6213 29.3787C40.0587 28.8161 39.2956 28.5 38.5 28.5H26.5C25.7044 28.5 24.9413 28.8161 24.3787 29.3787C23.8161 29.9413 23.5 30.7044 23.5 31.5V45C23.5 45.3978 23.658 45.7794 23.9393 46.0607C24.2206 46.342 24.6022 46.5 25 46.5C25.3978 46.5 25.7794 46.342 26.0607 46.0607C26.342 45.7794 26.5 45.3978 26.5 45V35.5H28.5V45C28.5 45.9283 28.1313 46.8185 27.4749 47.4749C26.8185 48.1313 25.9283 48.5 25 48.5C24.0717 48.5 23.1815 48.1313 22.5251 47.4749C21.8687 46.8185 21.5 45.9283 21.5 45V31.5C21.5016 30.1744 22.0289 28.9036 22.9662 27.9662C23.9036 27.0289 25.1744 26.5016 26.5 26.5H38.5C39.8256 26.5016 41.0964 27.0289 42.0338 27.9662C42.9711 28.9036 43.4984 30.1744 43.5 31.5V45C43.5 45.9283 43.1313 46.8185 42.4749 47.4749C41.8185 48.1313 40.9283 48.5 40 48.5Z" fill="#222222"/>
<path d="M26.5 44.5H28.5V64.5H26.5V44.5Z" fill="#222222"/>
<path d="M55.5 41.5H57.5V61.5H55.5V41.5Z" fill="#222222"/>
<path d="M50.5 47.5H52.5V61.5H50.5V47.5Z" fill="#222222"/>
<path d="M51.5 22.5C49.9092 22.4984 48.384 21.8658 47.2591 20.7409C46.1342 19.616 45.5016 18.0908 45.5 16.5V15.5C45.5 13.9087 46.1321 12.3826 47.2574 11.2574C48.3826 10.1321 49.9087 9.5 51.5 9.5C53.0913 9.5 54.6174 10.1321 55.7426 11.2574C56.8679 12.3826 57.5 13.9087 57.5 15.5V16.5C57.4984 18.0908 56.8658 19.616 55.7409 20.7409C54.616 21.8658 53.0908 22.4984 51.5 22.5ZM51.5 11.5C50.4391 11.5 49.4217 11.9214 48.6716 12.6716C47.9214 13.4217 47.5 14.4391 47.5 15.5V16.5C47.5 17.5609 47.9214 18.5783 48.6716 19.3284C49.4217 20.0786 50.4391 20.5 51.5 20.5C52.5609 20.5 53.5783 20.0786 54.3284 19.3284C55.0786 18.5783 55.5 17.5609 55.5 16.5V15.5C55.5 14.4391 55.0786 13.4217 54.3284 12.6716C53.5783 11.9214 52.5609 11.5 51.5 11.5Z" fill="#222222"/>
<path d="M58.9994 45.5C58.0711 45.5 57.1809 45.1313 56.5245 44.4749C55.8682 43.8185 55.4994 42.9283 55.4994 42V32.5H57.4994V42C57.4994 42.3978 57.6574 42.7794 57.9387 43.0607C58.22 43.342 58.6016 43.5 58.9994 43.5C59.3972 43.5 59.7788 43.342 60.0601 43.0607C60.3414 42.7794 60.4994 42.3978 60.4994 42V28.5C60.4994 27.7044 60.1833 26.9413 59.6207 26.3787C59.0581 25.8161 58.2951 25.5 57.4994 25.5H45.4994C44.769 25.4993 44.0636 25.7661 43.5164 26.25L42.1914 24.75C43.105 23.9443 44.2813 23.4998 45.4994 23.5H57.4994C58.825 23.5016 60.0958 24.0289 61.0332 24.9662C61.9705 25.9036 62.4978 27.1744 62.4994 28.5V42C62.4994 42.9283 62.1307 43.8185 61.4743 44.4749C60.8179 45.1313 59.9277 45.5 58.9994 45.5Z" fill="#222222"/>
<path d="M45.5 32.5H47.5V61.5H45.5V32.5Z" fill="#222222"/>
<path d="M12.5 47.5H14.5V61.5H12.5V47.5Z" fill="#222222"/>
<path d="M13.5 22.5C11.9092 22.4984 10.384 21.8658 9.25911 20.7409C8.13424 19.616 7.50159 18.0908 7.5 16.5V15.5C7.5 13.9087 8.13214 12.3826 9.25736 11.2574C10.3826 10.1321 11.9087 9.5 13.5 9.5C15.0913 9.5 16.6174 10.1321 17.7426 11.2574C18.8679 12.3826 19.5 13.9087 19.5 15.5V16.5C19.4984 18.0908 18.8658 19.616 17.7409 20.7409C16.616 21.8658 15.0908 22.4984 13.5 22.5ZM13.5 11.5C12.4391 11.5 11.4217 11.9214 10.6716 12.6716C9.92143 13.4217 9.5 14.4391 9.5 15.5V16.5C9.5 17.5609 9.92143 18.5783 10.6716 19.3284C11.4217 20.0786 12.4391 20.5 13.5 20.5C14.5609 20.5 15.5783 20.0786 16.3284 19.3284C17.0786 18.5783 17.5 17.5609 17.5 16.5V15.5C17.5 14.4391 17.0786 13.4217 16.3284 12.6716C15.5783 11.9214 14.5609 11.5 13.5 11.5Z" fill="#222222"/>
<path d="M24.5 13.5C22.9092 13.4984 21.384 12.8658 20.2591 11.7409C19.1342 10.616 18.5016 9.09081 18.5 7.5V6.5C18.5 4.9087 19.1321 3.38258 20.2574 2.25736C21.3826 1.13214 22.9087 0.5 24.5 0.5C26.0913 0.5 27.6174 1.13214 28.7426 2.25736C29.8679 3.38258 30.5 4.9087 30.5 6.5V7.5C30.4984 9.09081 29.8658 10.616 28.7409 11.7409C27.616 12.8658 26.0908 13.4984 24.5 13.5ZM24.5 2.5C23.4391 2.5 22.4217 2.92143 21.6716 3.67157C20.9214 4.42172 20.5 5.43913 20.5 6.5V7.5C20.5 8.56087 20.9214 9.57828 21.6716 10.3284C22.4217 11.0786 23.4391 11.5 24.5 11.5C25.5609 11.5 26.5783 11.0786 27.3284 10.3284C28.0786 9.57828 28.5 8.56087 28.5 7.5V6.5C28.5 5.43913 28.0786 4.42172 27.3284 3.67157C26.5783 2.92143 25.5609 2.5 24.5 2.5Z" fill="#222222"/>
<path d="M40.5 13.5C38.9092 13.4984 37.384 12.8658 36.2591 11.7409C35.1342 10.616 34.5016 9.09081 34.5 7.5V6.5C34.5 4.9087 35.1321 3.38258 36.2574 2.25736C37.3826 1.13214 38.9087 0.5 40.5 0.5C42.0913 0.5 43.6174 1.13214 44.7426 2.25736C45.8679 3.38258 46.5 4.9087 46.5 6.5V7.5C46.4984 9.09081 45.8658 10.616 44.7409 11.7409C43.616 12.8658 42.0908 13.4984 40.5 13.5ZM40.5 2.5C39.4391 2.5 38.4217 2.92143 37.6716 3.67157C36.9214 4.42172 36.5 5.43913 36.5 6.5V7.5C36.5 8.56087 36.9214 9.57828 37.6716 10.3284C38.4217 11.0786 39.4391 11.5 40.5 11.5C41.5609 11.5 42.5783 11.0786 43.3284 10.3284C44.0786 9.57828 44.5 8.56087 44.5 7.5V6.5C44.5 5.43913 44.0786 4.42172 43.3284 3.67157C42.5783 2.92143 41.5609 2.5 40.5 2.5Z" fill="#222222"/>
<path d="M6 45.5C5.07174 45.5 4.1815 45.1313 3.52513 44.4749C2.86875 43.8185 2.5 42.9283 2.5 42V28.5C2.50159 27.1744 3.02888 25.9036 3.96622 24.9662C4.90356 24.0289 6.17441 23.5016 7.5 23.5H19.5C20.7181 23.4998 21.8944 23.9443 22.808 24.75L21.483 26.25C20.9358 25.7661 20.2304 25.4993 19.5 25.5H7.5C6.70435 25.5 5.94129 25.8161 5.37868 26.3787C4.81607 26.9413 4.5 27.7044 4.5 28.5V42C4.5 42.3978 4.65804 42.7794 4.93934 43.0607C5.22064 43.342 5.60218 43.5 6 43.5C6.39782 43.5 6.77936 43.342 7.06066 43.0607C7.34196 42.7794 7.5 42.3978 7.5 42V32.5H9.5V42C9.5 42.9283 9.13125 43.8185 8.47487 44.4749C7.8185 45.1313 6.92826 45.5 6 45.5Z" fill="#222222"/>
<path d="M7.5 41.5H9.5V61.5H7.5V41.5Z" fill="#222222"/>
<path d="M17.5 32.5H19.5V61.5H17.5V32.5Z" fill="#222222"/>
</g>
<defs>
<clipPath id="clip0_2832_3136">
<rect width="64" height="64" fill="white" transform="translate(0.5 0.5)"/>
</clipPath>
</defs>
</svg>
