<svg width="64" height="64" viewBox="0 0 64 64" fill="none" xmlns="http://www.w3.org/2000/svg">
<path d="M59.6515 33.4352C56.7106 30.5075 53.3107 33.2477 53.3107 33.2477V17.835C53.3107 17.3174 52.8912 16.8975 52.3737 16.8975C51.8556 16.8975 51.4362 17.3174 51.4362 17.835V34.5666C51.4362 34.5666 46.9659 38.0905 45.0445 38.9519V11.2007C45.0445 9.91066 46.0938 8.86134 47.3839 8.86134H49.0968C50.3868 8.86134 51.4362 9.91066 51.4362 11.2007V13.9971C51.4362 14.5152 51.8556 14.9346 52.3737 14.9346C52.8912 14.9346 53.3107 14.5152 53.3107 13.9971V11.2007C53.3107 8.87696 51.4205 6.98682 49.0968 6.98682H47.3839C45.0601 6.98682 43.1695 8.87696 43.1695 11.2007V39.695C42.6104 39.8518 42.0367 39.9582 41.4537 40.0144V20.2501C41.4537 17.9146 39.5538 16.0147 37.2188 16.0147H35.5474C33.2124 16.0147 31.3125 17.9146 31.3125 20.2501V29.8019L29.5962 30.713V27.5343C29.5962 25.4318 27.8857 23.7213 25.7837 23.7213H23.268C21.1655 23.7213 19.4555 25.4318 19.4555 27.5343V36.0959L16.3944 37.7204L7.79868 40.177C6.30307 40.6042 5.05404 41.5837 4.28255 42.9343C3.51057 44.2854 3.3011 45.8586 3.6927 47.364L4.65413 51.0633C4.78402 51.5642 5.29574 51.8645 5.79721 51.7346C6.29819 51.6043 6.59897 51.0925 6.4686 50.5911L5.50717 46.8923C4.94955 44.7468 6.18246 42.5886 8.31431 41.9797L16.1732 39.7336L22.08 55.4983C22.4755 56.554 22.413 59.5657 19.2885 60.6756L13.3495 62.0247C11.2797 62.4945 9.2401 61.2537 8.70592 59.199L7.50034 54.5599C7.36997 54.0589 6.85825 53.7581 6.35727 53.888C5.8558 54.0183 5.55551 54.5301 5.68539 55.0315L6.89145 59.6712C7.56919 62.2777 9.88463 63.9999 12.4623 63.9999C14.3563 63.9999 19.704 62.5037 19.704 62.5037C21.3315 62.1346 22.7192 61.0799 23.5107 59.6112C24.164 58.3992 24.3579 57.0047 24.0776 55.6761L44.6246 50.6458C46.3238 50.2293 47.9371 49.4221 49.2887 48.3113L59.2878 40.0954C62.3361 37.3918 60.548 34.3273 59.6515 33.4352ZM35.5474 17.8897H37.2188C38.5201 17.8897 39.5787 18.9488 39.5787 20.2501V40.0612L33.6631 40.0588C33.1196 40.0539 33.4956 39.695 33.5254 39.6706L35.229 38.2907C36.8184 37.0031 37.8565 35.2131 38.314 32.9694C38.6045 31.546 38.0616 30.1212 36.898 29.2511C35.8111 28.4386 34.4131 28.2824 33.1875 28.8195V20.2501C33.1875 18.9488 34.2461 17.8897 35.5474 17.8897ZM21.3305 27.5343C21.3305 26.4659 22.1996 25.5963 23.268 25.5963H25.7837C26.852 25.5963 27.7217 26.4659 27.7217 27.5343V31.7082L21.33 35.1008V27.5343H21.3305ZM58.0978 38.6472L48.0982 46.863C46.9625 47.7966 45.607 48.4749 44.1788 48.8245L23.4804 53.8924L17.914 39.0373L33.8076 30.6007C34.4536 30.2575 35.1895 30.3146 35.7749 30.7526C36.3604 31.1906 36.6231 31.8791 36.4771 32.5949C36.1084 34.401 35.2915 35.8273 34.0488 36.8337L32.3452 38.2141C31.647 38.7795 31.3896 39.6921 31.6895 40.5393C31.9893 41.3859 32.7637 41.9338 33.6621 41.9338L40.4927 41.9367H40.4976C42.9293 41.9367 45.2662 41.1975 47.2555 39.7985L54.8893 34.4303C55.9582 33.6784 57.3971 33.8112 58.3102 34.7458C58.8361 35.2829 59.8654 36.8791 58.0978 38.6472Z" fill="#222222"/>
<path d="M18.4883 56.0989C18.4883 54.0623 16.8316 52.405 14.7949 52.405C12.7583 52.405 11.1016 54.0623 11.1016 56.0989C11.1016 58.135 12.7583 59.7923 14.7949 59.7923C16.8316 59.7923 18.4883 58.135 18.4883 56.0989ZM12.9766 56.0989C12.9766 55.096 13.792 54.28 14.7949 54.28C15.7974 54.28 16.6133 55.096 16.6133 56.0989C16.6133 57.1013 15.7979 57.9173 14.7949 57.9173C13.792 57.9173 12.9766 57.1013 12.9766 56.0989Z" fill="#222222"/>
<path d="M8.05437 29.4352L21.6824 15.7022L24.7478 17.2877C25.846 17.8556 27.1824 17.6612 28.073 16.8038L35.4911 9.66314C35.4911 9.66314 35.287 13.3306 38.3754 13.3306C39.9652 13.3306 41.2592 12.0367 41.2592 10.4464V2.88381C41.2592 2.87502 41.2587 2.86574 41.2587 2.85646C41.2484 0.883306 39.8055 0 38.3754 0H30.8787C29.2884 0 27.9949 1.29395 27.9949 2.88381C27.9949 6.05375 31.221 5.76761 31.221 5.76761L25.5618 11.2149L22.4519 9.6065C21.3274 9.02447 19.9724 9.23785 19.0798 10.1363L3.9606 25.3722C2.84047 26.5011 2.84731 28.3307 3.97622 29.4509C4.52017 29.9904 6.3776 31.112 8.05437 29.4352ZM5.29117 26.693L20.4104 11.4571C20.6057 11.2608 20.9192 10.9171 21.5906 11.272L25.2971 13.189C25.6541 13.3736 26.0887 13.3106 26.3782 13.0318L34.1966 5.50589C34.472 5.24075 34.5589 4.8345 34.4159 4.48001C34.2728 4.12502 33.929 3.89309 33.5462 3.89309H30.8787C30.3226 3.89309 29.8699 3.44045 29.8699 2.88381C29.8699 2.32765 30.3226 1.87501 30.8787 1.87501H38.3754C38.6512 1.87501 39.3837 1.87501 39.3837 2.87795C39.3837 2.88625 39.3842 2.89455 39.3842 2.90334V10.4464C39.3842 11.0025 38.9315 11.4551 38.3754 11.4551C37.8187 11.4551 37.3661 11.0025 37.3661 10.4464V7.45952C37.3661 7.08354 37.1415 6.74369 36.7958 6.59672C36.4501 6.44926 36.0497 6.52348 35.7787 6.78422L26.7727 15.4532C26.4612 15.753 25.9934 15.8214 25.6097 15.6227L21.9329 13.7208C21.5691 13.5328 21.1252 13.6026 20.8367 13.8931L6.7238 28.1144C6.10856 28.7297 5.48697 28.3088 5.29654 28.1198C4.90201 27.7277 4.89957 27.0876 5.29117 26.693Z" fill="#222222"/>
</svg>
