<svg width="58" height="65" viewBox="0 0 58 65" fill="none" xmlns="http://www.w3.org/2000/svg">
<path d="M39.6323 27.2264C40.6987 26.1709 41.3606 24.7076 41.3606 23.0922C41.3606 19.8837 38.7497 17.2734 35.5406 17.2734C33.0677 17.2734 30.8759 18.8411 30.0575 21.1382C29.7145 21.075 29.3617 21.0402 29.0005 21.0402C28.6394 21.0402 28.2866 21.075 27.9435 21.1382C27.1251 18.8409 24.9332 17.2734 22.4605 17.2734C19.2513 17.2734 16.6405 19.8837 16.6405 23.0922C16.6405 24.7076 17.3025 26.1709 18.3688 27.2264C15.8108 28.6835 14.1641 31.4428 14.1641 34.4437C14.1641 34.9615 14.5838 35.3812 15.1016 35.3812C15.6193 35.3812 16.0391 34.9615 16.0391 34.4437C16.0391 31.7933 17.6985 29.3865 20.1717 28.4426C20.8747 28.7445 21.6484 28.9123 22.4606 28.9123C22.8184 28.9123 23.1726 28.8778 23.5194 28.8138C23.8157 29.6426 24.2945 30.3851 24.9077 30.9926C22.3265 32.4542 20.7043 35.193 20.7043 38.2108C20.7043 38.7287 21.1241 39.1483 21.6419 39.1483C22.1596 39.1483 22.5794 38.7287 22.5794 38.2108C22.5794 35.6242 24.1189 33.3015 26.5014 32.2938C26.5651 32.2668 26.624 32.2331 26.6783 32.1948C27.3901 32.5059 28.1753 32.6797 29.0005 32.6797C29.813 32.6797 30.5868 32.5118 31.2898 32.2098C33.7619 33.1537 35.4217 35.5629 35.4217 38.2108C35.4217 38.7287 35.8414 39.1483 36.3592 39.1483C36.8769 39.1483 37.2967 38.7287 37.2967 38.2108C37.2967 35.2127 35.6496 32.4512 33.0923 30.9935C33.7061 30.3859 34.1852 29.643 34.4817 28.8138C34.8286 28.8778 35.1827 28.9123 35.5404 28.9123C36.3527 28.9123 37.1263 28.7445 37.8292 28.4426C40.3025 29.3865 41.9618 31.793 41.9618 34.4437C41.9618 34.9615 42.3816 35.3812 42.8994 35.3812C43.4171 35.3812 43.8369 34.9615 43.8369 34.4437C43.8371 31.4426 42.1904 28.6835 39.6323 27.2264ZM23.181 26.86C23.181 26.8969 23.1831 26.9331 23.1837 26.9697C22.9476 27.0137 22.7057 27.0372 22.4606 27.0372C20.2853 27.0372 18.5156 25.2676 18.5156 23.0922C18.5156 20.9177 20.2853 19.1484 22.4606 19.1484C24.1389 19.1484 25.6255 20.2133 26.1788 21.7726C24.3925 22.7673 23.181 24.6745 23.181 26.86ZM25.056 26.86C25.056 24.685 26.8255 22.9153 29.0006 22.9153C31.1758 22.9153 32.9453 24.6849 32.9453 26.86C32.9453 29.0351 31.1758 30.8046 29.0006 30.8046C26.8255 30.8046 25.056 29.035 25.056 26.86ZM34.8174 26.9697C34.8181 26.9331 34.8202 26.8967 34.8202 26.86C34.8202 24.6745 33.6087 22.7675 31.8224 21.7727C32.3757 20.2135 33.8623 19.1486 35.5406 19.1486C37.7158 19.1486 39.4856 20.9177 39.4856 23.0923C39.4856 25.2676 37.7158 27.0374 35.5406 27.0374C35.2954 27.0372 35.0536 27.0137 34.8174 26.9697Z" fill="#222222"/>
<path d="M53.2796 41.0174V23.9764C55.6165 23.5354 57.39 21.4799 57.39 19.0167C57.39 16.233 55.1254 13.9683 52.3416 13.9683C50.8117 13.9683 49.4396 14.6533 48.5131 15.7316L33.7646 7.21591C33.948 6.69354 34.049 6.13253 34.049 5.54815C34.049 2.76464 31.7844 0.5 29.0007 0.5C26.2171 0.5 23.9523 2.76464 23.9523 5.54828C23.9523 6.13266 24.0532 6.69354 24.2367 7.21604L9.48825 15.7316C8.56175 14.6533 7.18962 13.9683 5.65973 13.9683C2.87597 13.9683 0.611328 16.233 0.611328 19.0167C0.611328 21.4799 2.38484 23.5353 4.72173 23.9764V41.0174C2.38484 41.4584 0.611328 43.5139 0.611328 45.977C0.611328 48.7608 2.87597 51.0254 5.65973 51.0254C7.18724 51.0254 8.55737 50.3425 9.48388 49.2673L24.2366 57.7845C24.0532 58.3067 23.9523 58.8676 23.9523 59.4517C23.9523 62.2355 26.217 64.5001 29.0007 64.5001C31.7845 64.5001 34.0491 62.2355 34.0491 59.4517C34.0491 58.8676 33.9483 58.3067 33.7649 57.7845L48.5176 49.2673C49.4441 50.3427 50.8142 51.0254 52.3418 51.0254C55.1255 51.0254 57.3902 48.7608 57.3902 45.977C57.39 43.5138 55.6164 41.4584 53.2796 41.0174ZM52.3416 15.8433C54.0914 15.8433 55.515 17.267 55.515 19.0167C55.515 20.7665 54.0914 22.1901 52.3416 22.1901C50.5919 22.1901 49.1682 20.7665 49.1682 19.0167C49.1682 17.267 50.5919 15.8433 52.3416 15.8433ZM29.0007 2.37501C30.7505 2.37501 32.1741 3.79852 32.1741 5.54828C32.1741 7.29641 30.7531 8.71892 29.0056 8.72155C29.004 8.72155 29.0024 8.7213 29.0007 8.7213C28.9991 8.7213 28.9975 8.72155 28.9959 8.72155C27.2484 8.71892 25.8274 7.29641 25.8274 5.54828C25.8274 3.79852 27.2509 2.37501 29.0007 2.37501ZM2.48634 19.0167C2.48634 17.267 3.90997 15.8433 5.65973 15.8433C7.40949 15.8433 8.83313 17.267 8.83313 19.0167C8.83313 20.7665 7.40949 22.1901 5.65973 22.1901C3.90997 22.1901 2.48634 20.7665 2.48634 19.0167ZM5.65973 49.1503C3.90997 49.1503 2.48634 47.7267 2.48634 45.9769C2.48634 44.2271 3.90997 42.8035 5.65973 42.8035C7.40949 42.8035 8.83313 44.2271 8.83313 45.9769C8.83313 47.7267 7.40949 49.1503 5.65973 49.1503ZM29.0007 62.625C27.251 62.625 25.8274 61.2014 25.8274 59.4516C25.8274 57.7018 27.251 56.2782 29.0007 56.2782C30.7505 56.2782 32.1741 57.7018 32.1741 59.4516C32.1741 61.2014 30.7505 62.625 29.0007 62.625ZM32.8251 56.1618C32.093 55.3118 31.0836 54.7079 29.9381 54.4919V50.8802C29.9381 50.3623 29.5184 49.9427 29.0006 49.9427C28.4829 49.9427 28.0631 50.3623 28.0631 50.8802V54.4919C26.9177 54.7081 25.9083 55.3118 25.1761 56.1618L10.4236 47.6448C10.6071 47.1223 10.708 46.5614 10.708 45.977C10.708 45.3921 10.6069 44.8306 10.4231 44.3078L13.5519 42.5009C14.0003 42.2419 14.1538 41.6685 13.8949 41.2201C13.636 40.7717 13.0627 40.6184 12.6141 40.8771L9.48263 42.6856C8.7505 41.8364 7.74149 41.2331 6.59661 41.0172V23.9765C7.74187 23.7606 8.75113 23.157 9.48325 22.3074L12.619 24.1183C12.7666 24.2035 12.9279 24.244 13.087 24.244C13.4109 24.244 13.726 24.0759 13.8997 23.7753C14.1587 23.3269 14.005 22.7534 13.5567 22.4945L10.4233 20.685C10.6068 20.1624 10.7078 19.6012 10.7078 19.0167C10.7078 18.4347 10.6076 17.876 10.4255 17.3553L25.1761 8.83842C25.9082 9.68818 26.9175 10.2919 28.0627 10.5079V14.1201C28.0627 14.638 28.4825 15.0576 29.0002 15.0576C29.518 15.0576 29.9377 14.638 29.9377 14.1201V10.5079C31.083 10.2919 32.0923 9.68818 32.8244 8.83842L47.575 17.3553C47.393 17.876 47.2927 18.4347 47.2927 19.0167C47.2927 19.6012 47.3937 20.1624 47.5772 20.685L44.4438 22.4945C43.9955 22.7534 43.8418 23.3269 44.1008 23.7753C44.2745 24.0759 44.5896 24.244 44.9135 24.244C45.0725 24.244 45.2338 24.2035 45.3815 24.1183L48.5172 22.3074C49.2495 23.157 50.2587 23.7606 51.4039 23.9765V41.0172C50.259 41.2331 49.2501 41.8364 48.5179 42.6856L45.3863 40.8771C44.938 40.6186 44.3646 40.7717 44.1056 41.2201C43.8466 41.6685 44.0002 42.2419 44.4486 42.5009L47.5774 44.3078C47.3936 44.8306 47.2925 45.3921 47.2925 45.977C47.2925 46.5614 47.3933 47.1224 47.5769 47.6448L32.8251 56.1618ZM52.3416 49.1503C50.5919 49.1503 49.1682 47.7267 49.1682 45.9769C49.1682 44.2271 50.5919 42.8035 52.3416 42.8035C54.0914 42.8035 55.515 44.2271 55.515 45.9769C55.515 47.7267 54.0914 49.1503 52.3416 49.1503Z" fill="#222222"/>
<path d="M36.8525 42.1865H34.0625C33.5447 42.1865 33.125 42.6061 33.125 43.124C33.125 43.6419 33.5447 44.0615 34.0625 44.0615H36.8525C37.3702 44.0615 37.79 43.6419 37.79 43.124C37.79 42.6061 37.3702 42.1865 36.8525 42.1865Z" fill="#222222"/>
<path d="M36.8531 45.8584H21.1484C20.6307 45.8584 20.2109 46.278 20.2109 46.7959C20.2109 47.3138 20.6307 47.7334 21.1484 47.7334H36.8532C37.3709 47.7334 37.7907 47.3138 37.7907 46.7959C37.7907 46.278 37.3708 45.8584 36.8531 45.8584Z" fill="#222222"/>
<path d="M21.1484 44.0615H21.1614C21.6792 44.0615 22.0989 43.6419 22.0989 43.124C22.0989 42.6061 21.6792 42.1865 21.1614 42.1865H21.1484C20.6307 42.1865 20.2109 42.6061 20.2109 43.124C20.2109 43.6419 20.6307 44.0615 21.1484 44.0615Z" fill="#222222"/>
<path d="M24.4095 44.0615C24.9272 44.0615 25.347 43.6419 25.347 43.124C25.347 42.6061 24.9272 42.1865 24.4095 42.1865H24.3965C23.8787 42.1865 23.459 42.6061 23.459 43.124C23.459 43.6419 23.8787 44.0615 24.3965 44.0615H24.4095Z" fill="#222222"/>
<path d="M27.6556 44.0615C28.1733 44.0615 28.5931 43.6419 28.5931 43.124C28.5931 42.6061 28.1733 42.1865 27.6556 42.1865H27.6426C27.1248 42.1865 26.7051 42.6061 26.7051 43.124C26.7051 43.6419 27.1248 44.0615 27.6426 44.0615H27.6556Z" fill="#222222"/>
</svg>
