<svg width="65" height="65" viewBox="0 0 65 65" fill="none" xmlns="http://www.w3.org/2000/svg">
<path d="M51.5 18.9858C53.0556 18.4358 54.4301 17.4688 55.4732 16.1904C56.5163 14.912 57.1879 13.3714 57.4146 11.7371C57.6413 10.1028 57.4144 8.43765 56.7587 6.92359C56.1029 5.40954 55.0436 4.10489 53.6964 3.15223C52.3493 2.19957 50.7662 1.63557 49.1202 1.52188C47.4741 1.40819 45.8285 1.74918 44.3632 2.50758C42.8978 3.26598 41.6692 4.4126 40.8115 5.82212C39.9538 7.23164 39.5001 8.84981 39.5 10.4998C39.5 10.765 39.6054 11.0193 39.7929 11.2069C39.9804 11.3944 40.2348 11.4998 40.5 11.4998H44.5C44.7652 11.4998 45.0196 11.3944 45.2071 11.2069C45.3946 11.0193 45.5 10.765 45.5 10.4998C45.5 9.90643 45.6759 9.32641 46.0056 8.83306C46.3352 8.33971 46.8038 7.9552 47.352 7.72813C47.9001 7.50107 48.5033 7.44166 49.0853 7.55742C49.6672 7.67317 50.2018 7.9589 50.6213 8.37845C51.0409 8.79801 51.3266 9.33256 51.4424 9.9145C51.5581 10.4964 51.4987 11.0996 51.2716 11.6478C51.0446 12.196 50.6601 12.6645 50.1667 12.9942C49.6734 13.3238 49.0933 13.4998 48.5 13.4998C47.7044 13.4998 46.9413 13.8158 46.3787 14.3785C45.8161 14.9411 45.5 15.7041 45.5 16.4998V25.4998C45.5 25.765 45.6054 26.0193 45.7929 26.2069C45.9804 26.3944 46.2348 26.4998 46.5 26.4998H50.5C50.7652 26.4998 51.0196 26.3944 51.2071 26.2069C51.3946 26.0193 51.5 25.765 51.5 25.4998V18.9858ZM50.25 17.2788C50.0354 17.3342 49.8453 17.4593 49.7095 17.6346C49.5738 17.8098 49.5001 18.0251 49.5 18.2468V24.4998H47.5V16.4998C47.5 16.2346 47.6054 15.9802 47.7929 15.7927C47.9804 15.6051 48.2348 15.4998 48.5 15.4998C49.446 15.4996 50.3726 15.231 51.1721 14.7252C51.9716 14.2195 52.6112 13.4973 53.0166 12.6425C53.422 11.7878 53.5766 10.8355 53.4624 9.89641C53.3483 8.95729 52.97 8.06983 52.3716 7.3371C51.7732 6.60437 50.9792 6.05644 50.0819 5.75694C49.1845 5.45745 48.2206 5.41868 47.3021 5.64515C46.3835 5.87161 45.5481 6.35401 44.8928 7.03633C44.2375 7.71864 43.7892 8.57286 43.6 9.49977H41.57C41.7512 8.24628 42.2691 7.06544 43.0685 6.08308C43.8679 5.10072 44.9188 4.35364 46.1093 3.92147C47.2998 3.48929 48.5853 3.3882 49.8287 3.62897C51.0721 3.86974 52.2269 4.44335 53.1701 5.28868C54.1132 6.13401 54.8093 7.21938 55.1842 8.42913C55.5592 9.63888 55.5988 10.9277 55.2991 12.1582C54.9993 13.3887 54.3713 14.5149 53.4819 15.4166C52.5926 16.3184 51.4763 16.962 50.25 17.2788Z" fill="#222222"/>
<path d="M48.5 28.5C47.9067 28.5 47.3266 28.6759 46.8333 29.0056C46.3399 29.3352 45.9554 29.8038 45.7284 30.3519C45.5013 30.9001 45.4419 31.5033 45.5576 32.0853C45.6734 32.6672 45.9591 33.2018 46.3787 33.6213C46.7982 34.0409 47.3328 34.3266 47.9147 34.4424C48.4967 34.5581 49.0999 34.4987 49.648 34.2716C50.1962 34.0446 50.6648 33.6601 50.9944 33.1667C51.3241 32.6734 51.5 32.0933 51.5 31.5C51.5 30.7044 51.1839 29.9413 50.6213 29.3787C50.0587 28.8161 49.2957 28.5 48.5 28.5ZM48.5 32.5C48.3022 32.5 48.1089 32.4414 47.9444 32.3315C47.78 32.2216 47.6518 32.0654 47.5761 31.8827C47.5004 31.7 47.4806 31.4989 47.5192 31.3049C47.5578 31.1109 47.653 30.9327 47.7929 30.7929C47.9327 30.653 48.1109 30.5578 48.3049 30.5192C48.4989 30.4806 48.7 30.5004 48.8827 30.5761C49.0654 30.6518 49.2216 30.78 49.3315 30.9444C49.4414 31.1089 49.5 31.3022 49.5 31.5C49.5 31.7652 49.3946 32.0196 49.2071 32.2071C49.0196 32.3946 48.7652 32.5 48.5 32.5Z" fill="#222222"/>
<path d="M59.5 38.5C59.5 38.2348 59.3946 37.9804 59.2071 37.7929C59.0196 37.6054 58.7652 37.5 58.5 37.5H50.5C50.2348 37.5 49.9804 37.6054 49.7929 37.7929C49.6054 37.9804 49.5 38.2348 49.5 38.5C49.5 39.5609 49.0786 40.5783 48.3284 41.3284C47.5783 42.0786 46.5609 42.5 45.5 42.5C44.4391 42.5 43.4217 42.0786 42.6716 41.3284C41.9214 40.5783 41.5 39.5609 41.5 38.5C41.5 38.2348 41.3946 37.9804 41.2071 37.7929C41.0196 37.6054 40.7652 37.5 40.5 37.5H33.5V32.417C34.8992 32.1818 36.1699 31.4584 37.0862 30.3751C38.0026 29.2918 38.5055 27.9189 38.5055 26.5C38.5055 25.0811 38.0026 23.7082 37.0862 22.6249C36.1699 21.5416 34.8992 20.8182 33.5 20.583V14.5C33.5 14.2348 33.3946 13.9804 33.2071 13.7929C33.0196 13.6054 32.7652 13.5 32.5 13.5H6.5C6.23478 13.5 5.98043 13.6054 5.79289 13.7929C5.60536 13.9804 5.5 14.2348 5.5 14.5V62.5C5.5 62.7652 5.60536 63.0196 5.79289 63.2071C5.98043 63.3946 6.23478 63.5 6.5 63.5H58.5C58.7652 63.5 59.0196 63.3946 59.2071 63.2071C59.3946 63.0196 59.5 62.7652 59.5 62.5V38.5ZM7.5 15.5H31.5V21.5C31.5 21.7652 31.6054 22.0196 31.7929 22.2071C31.9804 22.3946 32.2348 22.5 32.5 22.5C33.5609 22.5 34.5783 22.9214 35.3284 23.6716C36.0786 24.4217 36.5 25.4391 36.5 26.5C36.5 27.5609 36.0786 28.5783 35.3284 29.3284C34.5783 30.0786 33.5609 30.5 32.5 30.5C32.2348 30.5 31.9804 30.6054 31.7929 30.7929C31.6054 30.9804 31.5 31.2348 31.5 31.5V37.5H24.417C24.1818 36.1008 23.4584 34.8301 22.3751 33.9138C21.2918 32.9974 19.9189 32.4945 18.5 32.4945C17.0811 32.4945 15.7082 32.9974 14.6249 33.9138C13.5416 34.8301 12.8182 36.1008 12.583 37.5H7.5V15.5ZM31.5 61.5H7.5V39.5H13.5C13.7652 39.5 14.0196 39.3946 14.2071 39.2071C14.3946 39.0196 14.5 38.7652 14.5 38.5C14.5 37.4391 14.9214 36.4217 15.6716 35.6716C16.4217 34.9214 17.4391 34.5 18.5 34.5C19.5609 34.5 20.5783 34.9214 21.3284 35.6716C22.0786 36.4217 22.5 37.4391 22.5 38.5C22.5 38.7652 22.6054 39.0196 22.7929 39.2071C22.9804 39.3946 23.2348 39.5 23.5 39.5H31.5V44.583C30.1008 44.8182 28.8301 45.5416 27.9138 46.6249C26.9974 47.7082 26.4945 49.0811 26.4945 50.5C26.4945 51.9189 26.9974 53.2918 27.9138 54.3751C28.8301 55.4584 30.1008 56.1818 31.5 56.417V61.5ZM57.5 61.5H33.5V55.5C33.5 55.2348 33.3946 54.9804 33.2071 54.7929C33.0196 54.6054 32.7652 54.5 32.5 54.5C31.4391 54.5 30.4217 54.0786 29.6716 53.3284C28.9214 52.5783 28.5 51.5609 28.5 50.5C28.5 49.4391 28.9214 48.4217 29.6716 47.6716C30.4217 46.9214 31.4391 46.5 32.5 46.5C32.7652 46.5 33.0196 46.3946 33.2071 46.2071C33.3946 46.0196 33.5 45.7652 33.5 45.5V39.5H39.583C39.8182 40.8992 40.5416 42.1699 41.6249 43.0862C42.7082 44.0026 44.0811 44.5055 45.5 44.5055C46.9189 44.5055 48.2918 44.0026 49.3751 43.0862C50.4584 42.1699 51.1818 40.8992 51.417 39.5H57.5V61.5Z" fill="#222222"/>
</svg>
