<svg width="65" height="64" viewBox="0 0 65 64" fill="none" xmlns="http://www.w3.org/2000/svg">
<path d="M11.1298 20.9599C11.3836 21.1064 11.6623 21.1798 11.941 21.1798C12.2205 21.1798 12.5003 21.1061 12.7554 20.9588L16.7748 18.6383C17.2844 18.344 17.5885 17.818 17.5885 17.2309C17.5885 16.6439 17.2843 16.1178 16.7748 15.8236L12.7554 13.5031C12.2459 13.2089 11.6381 13.2088 11.1298 13.5021C10.6215 13.7956 10.318 14.3221 10.318 14.9105V19.5516C10.3179 20.1399 10.6214 20.6664 11.1298 20.9599ZM11.8179 14.9104C11.8179 14.8921 11.8179 14.8368 11.8798 14.801C11.9 14.7894 11.9205 14.7835 11.9411 14.7835C11.9624 14.7835 11.9839 14.7898 12.0054 14.8021L16.0248 17.1226C16.0405 17.1318 16.0886 17.1594 16.0886 17.2309C16.0886 17.3024 16.0406 17.33 16.0248 17.3391L12.0054 19.6596C11.9896 19.6689 11.9415 19.6964 11.8798 19.6608C11.8179 19.625 11.8179 19.5696 11.8179 19.5514V14.9104ZM5.00015 25.6014H21.2798C23.0718 25.6014 24.5298 24.1434 24.5298 22.3514V12.1105C24.5298 10.3185 23.0718 8.86051 21.2798 8.86051H5.00015C3.20815 8.86051 1.75015 10.3185 1.75015 12.1105V22.3514C1.75027 24.1434 3.20815 25.6014 5.00015 25.6014ZM3.25027 12.1105C3.25027 11.1456 4.03527 10.3605 5.00027 10.3605H21.2799C22.2449 10.3605 23.0299 11.1455 23.0299 12.1105V22.3514C23.0299 23.3163 22.2449 24.1014 21.2799 24.1014H5.00015C4.03527 24.1014 3.25015 23.3164 3.25015 22.3514V12.1105H3.25027ZM41.0139 35.6496C40.9266 35.3241 40.6331 35.0968 40.2961 35.0938L36.8804 35.0636L34.3409 25.5859C34.1569 24.8989 33.7146 24.3238 33.0955 23.9664C32.4765 23.609 31.7573 23.5134 31.0701 23.6976C30.3831 23.8818 29.808 24.324 29.4506 24.943C29.0933 25.562 28.9978 26.2814 29.1819 26.9683L29.4746 28.0609C28.3538 30.1301 24.4303 35.9166 14.3954 39.1451C12.5568 39.7366 10.6386 40.2169 8.78352 40.6814C7.8479 40.9156 6.8804 41.1579 5.9304 41.4124C4.45877 41.8068 3.23665 42.758 2.4894 44.091C1.73927 45.4289 1.5524 47.0099 1.96315 48.5424C2.67665 51.2054 4.95565 52.9301 7.4874 52.9299C7.97327 52.9299 8.4689 52.8663 8.96402 52.7338C9.07877 52.703 9.1939 52.6713 9.3089 52.6399L14.3064 61.2958C14.8451 62.2288 15.8255 62.7509 16.8324 62.7508C17.3259 62.7508 17.8259 62.6254 18.2831 62.3614C18.9545 61.9736 19.4354 61.3458 19.6371 60.593C19.8388 59.8404 19.7364 59.056 19.3488 58.3846L15.0996 51.025C15.8746 50.8225 16.6525 50.6315 17.4283 50.4644C27.7336 48.2429 34.0243 51.2925 36.0295 52.5241L36.3223 53.6166C36.6416 54.8084 37.7234 55.5964 38.9026 55.5963C39.1306 55.5963 39.3625 55.5668 39.593 55.5051C41.0154 55.1239 41.8625 53.6566 41.4813 52.2344L38.9418 42.7566L41.8848 41.0225C42.1751 40.8515 42.3156 40.5078 42.2285 40.1823L41.0139 35.6496ZM8.57565 51.2845C6.3129 51.8911 4.04465 50.5156 3.4119 48.154C3.10302 47.0014 3.24002 45.8189 3.79765 44.8243C4.34552 43.8471 5.24077 43.1498 6.31852 42.8611C7.25652 42.6098 8.21802 42.369 9.14777 42.1363C10.7776 41.7283 12.4555 41.3079 14.1028 40.8075L16.3436 49.1706C14.6674 49.5609 13.0046 50.0356 11.3895 50.4971C10.4674 50.7608 9.51402 51.0331 8.57565 51.2845ZM18.0495 59.1343C18.2369 59.4586 18.286 59.8388 18.188 60.2045C18.09 60.5703 17.8574 60.8748 17.533 61.062C17.2086 61.2493 16.8288 61.2986 16.4628 61.2005C16.097 61.1025 15.7925 60.8698 15.6053 60.5455L10.801 52.2244C11.137 52.1291 11.4716 52.0338 11.8016 51.9395C12.3958 51.7698 12.9969 51.5985 13.6016 51.4301L18.0495 59.1343ZM17.8118 48.8544L15.5324 40.3476C21.897 38.1641 27.146 34.4226 30.0148 30.0768L35.4893 50.508C30.8319 48.1788 24.4155 47.563 17.8118 48.8544ZM39.2048 54.056C38.581 54.2233 37.9381 53.8518 37.771 53.2284L30.6306 26.58C30.5503 26.28 30.5925 25.965 30.7496 25.6929C30.9066 25.4209 31.1584 25.2268 31.4584 25.1464C31.5578 25.1198 31.6588 25.1066 31.7593 25.1066C31.9623 25.1066 32.1634 25.1604 32.3454 25.2654C32.6174 25.4224 32.8115 25.6741 32.8919 25.974L40.0324 52.6224C40.1994 53.2459 39.8281 53.889 39.2048 54.056ZM38.5388 41.253L37.2831 36.5671L39.7125 36.5886L40.6319 40.0196L38.5388 41.253ZM44.7744 27.4619L42.1213 32.0573C41.9824 32.2979 41.7303 32.4324 41.471 32.4324C41.3438 32.4324 41.2149 32.4 41.0968 32.3318C40.738 32.1246 40.6151 31.6659 40.8223 31.3073L43.4754 26.7119C43.6825 26.3531 44.1413 26.2304 44.4999 26.4374C44.8585 26.6445 44.9814 27.1031 44.7744 27.4619ZM48.8289 46.6919L44.2335 44.0386C43.8748 43.8315 43.7519 43.3729 43.959 43.0141C44.1661 42.6556 44.6249 42.5326 44.9835 42.7396L49.5789 45.3929C49.9376 45.6 50.0605 46.0586 49.8534 46.4174C49.7145 46.658 49.4624 46.7925 49.2031 46.7925C49.076 46.7925 48.947 46.76 48.8289 46.6919ZM45.2706 36.1616L50.3961 34.7883C50.7959 34.6809 51.2074 34.9184 51.3146 35.3186C51.4219 35.7188 51.1844 36.13 50.7843 36.2371L45.6588 37.6106C45.5938 37.628 45.5285 37.6363 45.4641 37.6363C45.133 37.6363 44.83 37.4153 44.7401 37.0803C44.633 36.6801 44.8705 36.2689 45.2706 36.1616ZM59.305 1.24951H41.0406C38.8653 1.24951 37.0954 3.01939 37.0954 5.19476V14.4831C37.0954 16.6585 38.8653 18.4284 41.0406 18.4284H42.9935V22.7135C42.9935 23.0036 43.1609 23.2678 43.4233 23.3916C43.5254 23.4399 43.6348 23.4635 43.7435 23.4635C43.9141 23.4635 44.0831 23.4054 44.22 23.2928L50.1348 18.4284H59.3051C61.4805 18.4284 63.2504 16.6585 63.2504 14.4831V5.19476C63.2501 3.01939 61.4804 1.24951 59.305 1.24951ZM61.7501 14.483C61.7501 15.8313 60.6533 16.9283 59.3049 16.9283H49.8658C49.692 16.9283 49.5236 16.9886 49.3894 17.099L44.4935 21.1255V17.6783C44.4935 17.2641 44.1576 16.9283 43.7435 16.9283H41.0406C39.6924 16.9283 38.5954 15.8314 38.5954 14.483V5.19476C38.5954 3.84651 39.6923 2.74951 41.0406 2.74951H59.305C60.6533 2.74951 61.7503 3.84639 61.7503 5.19476V14.483H61.7501ZM58.6796 6.32326C58.6796 6.73739 58.3438 7.07326 57.9296 7.07326H42.416C42.0019 7.07326 41.666 6.73739 41.666 6.32326C41.666 5.90914 42.0019 5.57326 42.416 5.57326H57.9296C58.3439 5.57326 58.6796 5.90901 58.6796 6.32326ZM58.6796 13.3544C58.6796 13.7685 58.3438 14.1044 57.9296 14.1044H49.8658C49.4516 14.1044 49.1158 13.7685 49.1158 13.3544C49.1158 12.9403 49.4516 12.6044 49.8658 12.6044H57.9296C58.3439 12.6044 58.6796 12.9403 58.6796 13.3544ZM58.6796 9.83889C58.6796 10.253 58.3438 10.5889 57.9296 10.5889H42.416C42.0019 10.5889 41.666 10.253 41.666 9.83889C41.666 9.42476 42.0019 9.08889 42.416 9.08889H57.9296C58.3439 9.08889 58.6796 9.42464 58.6796 9.83889ZM58.7683 48.2395C57.462 48.2395 56.2344 48.8578 55.3948 49.8835C54.555 48.8578 53.3275 48.2395 52.0213 48.2395C49.5499 48.2395 47.5393 50.3964 47.5393 53.0476C47.5393 55.2649 50.1655 58.0919 53.0914 61.0368C53.5656 61.514 53.9751 61.9263 54.2798 62.2559C54.5698 62.5696 54.9761 62.7495 55.3949 62.7495C55.8136 62.7494 56.22 62.5695 56.5096 62.2559C56.8143 61.9263 57.2238 61.514 57.698 61.0368C60.6239 58.0919 63.2501 55.265 63.2501 53.0476C63.2501 50.3964 61.2395 48.2395 58.7683 48.2395ZM56.634 59.9796C56.1495 60.4671 55.7311 60.8884 55.408 61.2379C55.4005 61.2459 55.3956 61.2486 55.3954 61.2494C55.3938 61.2486 55.3888 61.246 55.3813 61.2378C55.0583 60.8883 54.6398 60.4671 54.1553 59.9795C52.3673 58.18 49.0391 54.8301 49.0391 53.0476C49.0391 51.2235 50.3769 49.7395 52.0211 49.7395C53.157 49.7395 54.2114 50.4739 54.7073 51.6104C54.8265 51.8838 55.0964 52.0605 55.3948 52.0605C55.693 52.0605 55.9629 51.8838 56.0823 51.6104C56.5781 50.4739 57.6324 49.7395 58.7684 49.7395C60.4126 49.7395 61.7503 51.2235 61.7503 53.0476C61.7501 54.8301 58.422 58.1799 56.634 59.9796Z" fill="#222222" stroke="#222222"/>
</svg>
