<svg width="64" height="65" viewBox="0 0 64 65" fill="none" xmlns="http://www.w3.org/2000/svg">
<path d="M64 23.892C63.9963 23.2226 63.6657 22.5973 63.1147 22.2173C62.5178 21.8146 61.7637 21.7233 61.088 21.972L50.1333 26.1V19.9773L50.464 20.2013C50.9919 20.5719 51.6217 20.7694 52.2667 20.7667C53.3253 20.7671 54.3156 20.244 54.912 19.3693C55.9031 17.9133 55.5313 15.9301 54.08 14.932L33.8133 1.06533C33.28 0.697708 32.6477 0.500578 32 0.5C31.3523 0.500578 30.72 0.697708 30.1867 1.06533L9.92 14.932C9.21514 15.41 8.72991 16.1493 8.57174 16.9862C8.41358 17.823 8.59554 18.6884 9.07733 19.3907C9.68062 20.2604 10.6749 20.7755 11.7333 20.7667C12.3763 20.7671 13.0045 20.5738 13.536 20.212L13.8667 19.9773V26.3773L2.93333 21.9933C2.27645 21.7276 1.53049 21.8054 0.942552 22.2009C0.354614 22.5964 0.00143419 23.2581 0 23.9667V52.7667C0 53.9449 0.955126 54.9 2.13333 54.9H2.93333C4.12593 54.8925 5.21539 54.2224 5.76 53.1613L6.656 51.38L8.53333 52.2547C7.90581 53.9156 8.66979 55.779 10.2827 56.5213C10.7271 56.7273 11.2115 56.8329 11.7013 56.8307C12.1177 56.828 12.5299 56.7484 12.9173 56.596C13.2655 57.4884 13.9461 58.211 14.816 58.612C15.3051 58.8347 15.8359 58.951 16.3733 58.9533C16.8177 58.9541 17.2586 58.8746 17.6747 58.7187C18.0123 59.6631 18.7158 60.432 19.6267 60.852C20.1141 61.0796 20.646 61.1961 21.184 61.1933C21.568 61.1912 21.9493 61.1301 22.3147 61.012V61.0653C22.6078 61.8634 23.2065 62.512 23.9787 62.868C25.3795 63.5087 27.038 63.0605 27.9253 61.8013L30.4533 63.8387C31.3923 64.5481 32.6263 64.7346 33.7329 64.3341C34.8395 63.9337 35.6685 63.0007 35.936 61.8547C37.0784 62.1872 38.3109 61.8586 39.136 61.0013C39.6707 60.4741 40.003 59.7755 40.0747 59.028C40.2274 59.0379 40.3806 59.0379 40.5333 59.028C42.4804 59.0325 44.1348 57.6053 44.416 55.6787C44.8389 55.8215 45.2816 55.8971 45.728 55.9027C46.8124 55.9055 47.8531 55.476 48.6199 54.7092C49.3867 53.9425 49.8162 52.9017 49.8133 51.8173C49.8102 51.2822 49.7015 50.753 49.4933 50.26L56.2773 47.4333L58.2613 51.1027C58.8224 52.128 59.8978 52.766 61.0667 52.7667H61.8667C63.0163 52.7674 63.9598 51.857 64 50.708V23.892ZM12.3307 18.452C11.8446 18.7848 11.1809 18.6606 10.848 18.1747C10.6879 17.9369 10.6303 17.6447 10.688 17.364C10.7408 17.0917 10.8977 16.8506 11.1253 16.692L31.392 2.82533C31.5684 2.69688 31.7818 2.62947 32 2.63333C32.2175 2.63385 32.4296 2.70084 32.608 2.82533L52.8747 16.692C53.354 17.0243 53.4776 17.68 53.152 18.164C52.8191 18.65 52.1554 18.7741 51.6693 18.4413L32.608 5.40667C32.2424 5.15301 31.7577 5.15301 31.392 5.40667L12.3307 18.452ZM32 7.572L48 18.5267V27.1667C46.9049 28.0655 46.6086 29.6185 47.296 30.8573L48.3627 32.8413L45.4827 33.908C44.4984 34.2904 43.3889 34.1627 42.5173 33.5667L37.3333 29.7373V23.9667C37.3333 22.7885 36.3782 21.8333 35.2 21.8333H28.8C27.6218 21.8333 26.6667 22.7885 26.6667 23.9667V30.932C26.2634 31.4921 25.9066 32.0843 25.6 32.7027C24.4472 32.808 23.3031 32.9934 22.176 33.2573C21.5492 33.4132 20.9106 33.5166 20.2667 33.5667C18.8527 33.398 17.4762 32.998 16.192 32.3827L16.704 31.316C17.3677 30.0245 17.0787 28.448 16 27.476V18.5267L32 7.572ZM35.2 28.2867C33.1455 27.2337 30.6745 27.419 28.8 28.7667V23.9667H35.2V28.2867ZM2.93333 52.7667H2.13333V23.9667L14.272 28.8947C14.547 29.0055 14.7634 29.2258 14.8693 29.5027C14.9809 29.7962 14.9575 30.124 14.8053 30.3987L3.86133 52.2013C3.67837 52.545 3.32266 52.7617 2.93333 52.7667ZM11.136 54.548C10.5071 54.258 10.2307 53.5144 10.5173 52.884L11.7333 50.324C12.0233 49.6951 12.7669 49.4187 13.3973 49.7053C13.7022 49.84 13.9378 50.0948 14.048 50.4093C14.1754 50.7203 14.1754 51.069 14.048 51.38L12.8 53.94C12.6609 54.2422 12.407 54.4763 12.0946 54.5905C11.7822 54.7046 11.4371 54.6893 11.136 54.548ZM16.8853 56.6813C16.4967 56.8461 16.0579 56.8461 15.6693 56.6813C15.2814 56.5086 14.9809 56.1849 14.8373 55.7853C14.6778 55.392 14.6778 54.952 14.8373 54.5587L16.672 50.6333C16.8487 50.2483 17.171 49.9491 17.568 49.8013C17.7462 49.7385 17.9337 49.706 18.1227 49.7053C18.3539 49.7041 18.5828 49.7513 18.7947 49.844C19.1804 50.0251 19.4793 50.3509 19.6267 50.7507C19.792 51.1428 19.792 51.5852 19.6267 51.9773L17.792 55.86C17.6109 56.2457 17.2851 56.5446 16.8853 56.692V56.6813ZM20.512 58.8147C19.7105 58.4384 19.3591 57.4887 19.7227 56.6813L21.0667 53.8333C21.2462 53.4504 21.5675 53.1521 21.9627 53.0013C22.1409 52.9385 22.3284 52.906 22.5173 52.9053C22.75 52.9013 22.9803 52.9525 23.1893 53.0547C23.5765 53.2284 23.8767 53.5517 24.0213 53.9507C24.1698 54.35 24.1506 54.7924 23.968 55.1773L22.7307 57.8867L22.6453 58.068C22.4689 58.4571 22.1441 58.7595 21.7434 58.9078C21.3426 59.0561 20.8993 59.0379 20.512 58.8573V58.8147ZM24.8747 60.82C24.618 60.7022 24.4185 60.4874 24.32 60.2227C24.2104 59.9599 24.2104 59.6641 24.32 59.4013L24.6507 58.6867L25.6427 56.5533C25.8349 56.1696 26.2384 55.9384 26.6667 55.9667C26.8212 55.9658 26.9741 55.9986 27.1147 56.0627C27.3772 56.1789 27.5818 56.3961 27.6821 56.6651C27.7825 56.9341 27.7702 57.2322 27.648 57.492L26.3147 60.3827C26.1926 60.6423 25.9711 60.8418 25.7001 60.9362C25.4291 61.0305 25.1316 61.0117 24.8747 60.884V60.82ZM47.104 53.1507C46.3828 53.8787 45.2199 53.9207 44.448 53.2467L39.264 48.7027L38.0373 47.636C37.9298 47.5387 37.8024 47.4659 37.664 47.4227C37.6108 47.4175 37.5572 47.4175 37.504 47.4227C37.2881 47.381 37.0645 47.4071 36.864 47.4973C36.7403 47.5636 36.6285 47.6502 36.5333 47.7533C36.3456 47.955 36.2492 48.225 36.2667 48.5C36.2621 48.5318 36.2621 48.5642 36.2667 48.596C36.3017 48.8374 36.4184 49.0595 36.5973 49.2253L41.6853 53.684C42.4099 54.3615 42.4481 55.4981 41.7707 56.2227C41.0932 56.9473 39.9566 56.9855 39.232 56.308L39.1147 56.1907L34.848 51.924C34.4297 51.5057 33.7516 51.5057 33.3333 51.924C32.9151 52.3423 32.9151 53.0204 33.3333 53.4387L37.6 57.7053C37.8254 57.9278 37.9523 58.2313 37.9523 58.548C37.9523 58.8647 37.8254 59.1682 37.6 59.3907C37.1236 59.839 36.3804 59.839 35.904 59.3907L34.9867 58.4627L33.792 57.268C33.5917 57.0661 33.3191 56.9525 33.0347 56.9525C32.7503 56.9525 32.4776 57.0661 32.2773 57.268C32.0754 57.4683 31.9618 57.7409 31.9618 58.0253C31.9618 58.3097 32.0754 58.5824 32.2773 58.7827L33.472 59.9773C33.7338 60.2277 33.8805 60.5751 33.8773 60.9373C33.8551 61.432 33.5668 61.8758 33.124 62.0973C32.6811 62.3187 32.153 62.283 31.744 62.004L28.9067 59.8067L29.568 58.356C29.9298 57.5828 29.9677 56.6971 29.6732 55.8959C29.3788 55.0946 28.7764 54.4442 28 54.0893C27.4323 53.8328 26.8021 53.7475 26.1867 53.844C26.1497 53.6304 26.0962 53.42 26.0267 53.2147C25.3988 51.4939 23.6097 50.4883 21.8133 50.8467C21.6778 49.7162 21.0323 48.7098 20.0613 48.1152C19.0904 47.5205 17.9006 47.4029 16.832 47.796C16.3122 47.9932 15.8423 48.3028 15.456 48.7027C15.1389 48.2984 14.7291 47.9764 14.2613 47.764C12.5617 46.9782 10.5469 47.7183 9.76 49.4173L9.36533 50.292L7.616 49.46L15.232 34.292C16.8162 35.049 18.5196 35.5254 20.2667 35.7C21.048 35.6526 21.823 35.5312 22.5813 35.3373C23.1787 35.2093 23.8187 35.0813 24.4907 34.9747L22.7413 38.9C21.9266 40.7576 22.7157 42.9276 24.5333 43.828H24.64C25.1394 44.0674 25.6862 44.1914 26.24 44.1907C27.335 44.1953 28.378 43.7243 29.0987 42.9L33.312 38.2067L47.0187 50.3773C47.423 50.7325 47.6617 51.2396 47.6779 51.7775C47.6941 52.3154 47.4862 52.8358 47.104 53.2147V53.1507ZM48.1707 48.468L32.704 34.9C32.2593 34.5418 31.6114 34.5974 31.2341 35.026C30.8569 35.4547 30.8842 36.1044 31.296 36.5L31.68 36.8413L27.4773 41.524C26.9767 42.0958 26.1554 42.2618 25.472 41.9293H25.3973C24.6499 41.5046 24.3419 40.5853 24.6827 39.796L27.1573 34.3133C27.7408 33.0183 28.5787 31.8539 29.6213 30.8893C31.0366 29.5773 33.1831 29.4521 34.7413 30.5907L41.2373 35.3267C42.6834 36.3645 44.5519 36.6126 46.2187 35.988L49.4187 34.804L55.2533 45.588L48.1707 48.468ZM61.088 50.6013C60.706 50.6111 60.3479 50.4158 60.1493 50.0893L49.1947 29.8227C49.0765 29.6104 49.057 29.3572 49.1413 29.1293C49.2435 28.8695 49.4538 28.667 49.7173 28.5747L61.8667 23.892V50.6333L61.088 50.6013Z" fill="#222222"/>
<path d="M31.9991 19.6998C34.3555 19.6998 36.2658 17.7896 36.2658 15.4332C36.2658 13.0768 34.3555 11.1665 31.9991 11.1665C29.6427 11.1665 27.7324 13.0768 27.7324 15.4332C27.7324 17.7896 29.6427 19.6998 31.9991 19.6998ZM31.9991 13.2998C33.1773 13.2998 34.1324 14.255 34.1324 15.4332C34.1324 16.6114 33.1773 17.5665 31.9991 17.5665C30.8209 17.5665 29.8658 16.6114 29.8658 15.4332C29.8658 14.255 30.8209 13.2998 31.9991 13.2998Z" fill="#222222"/>
</svg>
