<svg width="64" height="65" viewBox="0 0 64 65" fill="none" xmlns="http://www.w3.org/2000/svg">
<g opacity="0.64">
<path d="M29.6712 25.4212H23.2712C19.3924 21.7363 14.8348 17.3727 13.9621 16.6939C11.15 14.7545 6.39844 16.9848 6.39844 21.2515V38.609C6.39844 41.5181 8.82268 43.7484 11.3439 43.7484C11.4409 43.7484 11.7318 43.7484 11.6348 43.7484H24.9197V59.9424C24.9197 61.8818 26.5681 63.5303 28.5075 63.5303C30.4469 63.5303 32.0954 61.8818 32.0954 59.9424V40.1606C32.0954 38.2212 30.4469 36.5727 28.5075 36.5727H16.5803V29.106L19.2954 31.7242C19.9742 32.306 20.8469 32.6939 21.7196 32.6939H29.5742C31.5136 32.6939 33.1621 31.0454 33.1621 29.106C33.259 27.0696 31.6106 25.4212 29.6712 25.4212ZM29.6712 30.6575H21.8166C21.4287 30.6575 21.0409 30.4636 20.653 30.1727L16.2893 26.0999C15.7075 25.5181 14.6409 26.003 14.6409 26.7787V37.4454C14.6409 38.0272 15.0287 38.4151 15.6106 38.4151H28.4106C29.2833 38.4151 30.059 39.1909 30.059 40.0636V59.8454C30.059 60.7181 29.2833 61.4939 28.4106 61.4939C27.5378 61.4939 26.7621 60.7181 26.7621 59.8454V42.7787C26.7621 42.1969 26.3742 41.809 25.7924 41.809H11.4409H11.3439C9.21056 41.6151 8.14389 40.1606 8.14389 38.609V21.2515C8.14389 18.4393 11.3439 17.4696 12.7984 18.3424C13.3803 18.7302 18.0348 23.1909 22.1075 27.0696C22.3015 27.2636 22.4954 27.3606 22.7863 27.3606H29.5742C30.4469 27.3606 31.2227 28.1363 31.2227 29.009C31.3197 29.9787 30.5439 30.6575 29.6712 30.6575Z" fill="black" stroke="black"/>
<path d="M21.8176 47.3362H5.91452C4.75089 47.3362 3.78119 46.3665 3.78119 45.2028V17.8574C3.78119 17.2756 3.39331 16.8877 2.81149 16.8877C2.22968 16.8877 1.8418 17.2756 1.8418 17.8574V45.1059C1.8418 47.3362 3.68422 49.1786 5.91452 49.1786H11.8297V57.1301L7.56301 59.9422C7.07816 60.2332 6.98119 60.815 7.2721 61.2998C7.56301 61.7847 8.14483 61.8816 8.62968 61.5907L12.7024 58.7786L16.7751 61.5907C17.26 61.8816 17.8418 61.7847 18.1327 61.2998C18.4236 60.815 18.3266 60.2332 17.8418 59.9422L13.5751 57.1301V49.1786H21.6236C22.2054 49.1786 22.5933 48.7907 22.5933 48.2089C22.7873 47.7241 22.3994 47.3362 21.8176 47.3362Z" fill="black" stroke="black"/>
<path d="M11.2471 13.8818C14.641 13.8818 17.4531 11.0697 17.4531 7.67579C17.4531 4.28185 14.738 1.46973 11.2471 1.46973C7.75617 1.46973 5.04102 4.28185 5.04102 7.67579C5.04102 11.0697 7.85314 13.8818 11.2471 13.8818ZM11.2471 3.40912C13.5743 3.40912 15.5137 5.34851 15.5137 7.67579C15.5137 10.0031 13.5743 11.9425 11.2471 11.9425C8.9198 11.9425 6.98041 10.0031 6.98041 7.67579C6.98041 5.34851 8.9198 3.40912 11.2471 3.40912Z" fill="black" stroke="black"/>
<path d="M62.1564 35.1181V30.5605C62.1564 29.9787 61.7685 29.5908 61.1867 29.5908H35.0049C34.423 29.5908 34.0352 29.9787 34.0352 30.5605V35.1181C34.0352 35.6999 34.423 36.0878 35.0049 36.0878H55.0776V57.1302H44.217C43.6352 57.1302 43.2473 57.5181 43.2473 58.0999V62.5605C43.2473 63.1423 43.6352 63.5302 44.217 63.5302H61.1867C61.7685 63.5302 62.1564 63.1423 62.1564 62.5605V35.1181ZM36.0715 31.5302H60.3139V34.1484H56.1442H36.0715V31.5302ZM60.217 61.5908H45.1867V58.9726H56.0473C56.6291 58.9726 57.017 58.5848 57.017 58.0029V36.0878H60.217V61.5908Z" fill="black" stroke="black"/>
<path d="M39.0789 24.1606L41.5031 25.2272C42.4728 25.6151 43.6365 25.1303 44.0244 24.1606L45.7698 19.8939C47.2244 20.1848 48.6789 19.8939 49.7456 19.1182V26.6818H48.485C47.9032 26.6818 47.5153 27.0697 47.5153 27.6515C47.5153 28.2333 47.9032 28.6212 48.485 28.6212H53.0425C53.6244 28.6212 54.0122 28.2333 54.0122 27.6515C54.0122 27.0697 53.6244 26.6818 53.0425 26.6818H51.7819V16.6939C52.7516 14.3666 51.8789 11.6515 49.7456 10.2939L51.491 6.02724C51.685 5.5424 51.685 5.05755 51.491 4.5727C51.3941 3.99088 51.0062 3.603 50.5213 3.40906L48.0971 2.3424C47.1274 1.95452 45.9638 2.43937 45.5759 3.40906L38.0122 21.5424C37.6244 22.6091 38.0122 23.7727 39.0789 24.1606ZM46.6425 17.9545L49.0668 12.1363C51.588 14.1727 49.8425 18.2454 46.6425 17.9545ZM47.3213 4.18482L49.7456 5.25149C48.485 8.25755 45.188 16.306 42.2789 23.3848L39.7577 22.3182L47.3213 4.18482Z" fill="black" stroke="black"/>
</g>
</svg>
