<svg width="64" height="65" viewBox="0 0 64 65" fill="none" xmlns="http://www.w3.org/2000/svg">
<g clip-path="url(#clip0_2718_5791)">
<path d="M53.0235 43.0948L46.3677 41.5585L40.0001 37.9201V33.0266C41.6869 31.2432 42.7255 28.9447 42.9494 26.5001H44.0001C44.849 26.5016 45.6763 26.2326 46.3619 25.732C47.0475 25.2314 47.5557 24.5253 47.8127 23.7162C48.0698 22.9072 48.0622 22.0372 47.7913 21.2327C47.5203 20.4282 47 19.731 46.3059 19.2423C47.0031 15.6857 48.1059 6.89962 43.1407 2.72372C39.4464 -0.37988 33.3116 -0.228379 24.9001 3.18082C23.9332 2.98391 22.9367 2.98244 21.9692 3.1765C21.0018 3.37057 20.0829 3.75624 19.2668 4.31082C17.7628 5.49012 17.0001 7.38782 17.0001 9.95012V19.8821C16.4908 20.4574 16.159 21.1677 16.0446 21.9274C15.9301 22.6871 16.038 23.4637 16.3552 24.1634C16.6724 24.8631 17.1854 25.4561 17.8321 25.8707C18.4789 26.2854 19.2318 26.504 20.0001 26.5001H21.0508C21.2746 28.9447 22.3133 31.2432 24.0001 33.0266V37.9201L17.6329 41.5585L10.9767 43.095C8.98994 43.5456 7.21614 44.6599 5.94785 46.2541C4.67955 47.8484 3.99251 49.8273 4.00006 51.8644V63.5001C4.00006 63.7653 4.10542 64.0197 4.29295 64.2072C4.48049 64.3948 4.73485 64.5001 5.00006 64.5001H59.0001C59.2653 64.5001 59.5196 64.3948 59.7072 64.2072C59.8947 64.0197 60.0001 63.7653 60.0001 63.5001V51.8644C60.0076 49.8272 59.3205 47.8483 58.0522 46.2541C56.784 44.6599 55.0102 43.5455 53.0235 43.0948ZM30.6501 55.5001H33.3501L36.4611 62.5001H27.5387L30.6501 55.5001ZM33.3233 53.5001H30.6772L29.0193 49.3551L32.0001 47.6518L34.9809 49.3551L33.3233 53.5001ZM32.0001 36.5001C34.1294 36.4981 36.2129 35.8813 38.0001 34.7237V38.1237L32.0001 44.9811L26.0001 38.1241V34.7241C27.7891 35.8777 29.8714 36.494 32.0001 36.5001ZM33.5577 46.2384L39.214 39.7745L44.4425 42.7618L38.7862 49.2257L33.5577 46.2384ZM44.0001 24.5001H43.0001V20.5001H44.0001C44.5305 20.5001 45.0392 20.7108 45.4143 21.0859C45.7893 21.461 46.0001 21.9697 46.0001 22.5001C46.0001 23.0306 45.7893 23.5393 45.4143 23.9143C45.0392 24.2894 44.5305 24.5001 44.0001 24.5001ZM19.0001 9.95012C19.0001 8.03802 19.5025 6.67282 20.4933 5.89012C21.3232 5.30295 22.3243 5.00715 23.3401 5.04892C23.8173 5.04735 24.2934 5.0948 24.761 5.19052C24.967 5.24108 25.1838 5.22501 25.3802 5.14462C33.1912 1.93172 38.7332 1.63292 41.8533 4.25462C45.8689 7.63062 45.0433 15.1081 44.409 18.5212C44.113 18.4901 43.3257 18.5001 43.0001 18.5001V13.5001C43.0073 13.2899 42.9434 13.0834 42.8186 12.914C42.6939 12.7446 42.5157 12.6222 42.3128 12.5667C42.1467 12.5049 41.967 12.4893 41.7928 12.5216L34.005 14.1681C30.5894 14.8673 27.0435 14.5434 23.8112 13.2369C23.3526 13.0484 22.9017 12.8399 22.4586 12.6114C22.3061 12.5328 22.136 12.4947 21.9646 12.5007C21.7932 12.5068 21.6262 12.5569 21.4797 12.6462C21.3332 12.7354 21.2122 12.8608 21.1282 13.0104C21.0442 13.1599 21.0001 13.3286 21.0001 13.5001V18.5001H20.0001C19.6632 18.5071 19.328 18.5496 19.0001 18.6271V9.95012ZM18.0001 22.5001C18.0059 21.9715 18.2184 21.4661 18.5923 21.0923C18.9661 20.7185 19.4714 20.5059 20.0001 20.5001H21.0001V24.5001H20.0001C19.4698 24.4995 18.9615 24.2886 18.5865 23.9137C18.2116 23.5387 18.0007 23.0304 18.0001 22.5001ZM23.0001 19.5001V15.0655C26.613 16.5567 30.5908 16.9272 34.4171 16.129L41.0001 14.7345V25.5001C41.0001 27.8871 40.0518 30.1763 38.364 31.8641C36.6762 33.5519 34.387 34.5001 32.0001 34.5001C29.6131 34.5001 27.3239 33.5519 25.6361 31.8641C23.9483 30.1763 23.0001 27.8871 23.0001 25.5001V19.5001ZM24.7862 39.7745L30.4425 46.2384L25.214 49.2257L19.5577 42.7618L24.7862 39.7745ZM6.00006 51.8644C5.99412 50.28 6.52848 48.7409 7.51496 47.501C8.50145 46.2612 9.88113 45.3947 11.4264 45.0444L17.6423 43.6097L24.2477 51.1587C24.3996 51.3324 24.6069 51.4482 24.8344 51.4865C25.062 51.5247 25.2958 51.4831 25.4962 51.3687L27.2662 50.3575L28.9152 54.48L25.3501 62.5001H15.0001V57.5001C15.0001 57.2349 14.8947 56.9806 14.7072 56.793C14.5196 56.6055 14.2653 56.5001 14.0001 56.5001C13.7348 56.5001 13.4805 56.6055 13.293 56.793C13.1054 56.9806 13.0001 57.2349 13.0001 57.5001V62.5001H6.00006V51.8644ZM58.0001 62.5001H51.0001V57.5001C51.0001 57.2349 50.8947 56.9806 50.7072 56.793C50.5196 56.6055 50.2653 56.5001 50.0001 56.5001C49.7348 56.5001 49.4805 56.6055 49.293 56.793C49.1054 56.9806 49.0001 57.2349 49.0001 57.5001V62.5001H38.6501L35.0851 54.4801L36.7344 50.3575L38.5044 51.3688C38.7048 51.4834 38.9387 51.525 39.1663 51.4868C39.394 51.4485 39.6014 51.3326 39.7534 51.1588L46.3588 43.6098L52.5747 45.0445C54.1197 45.395 55.4991 46.2616 56.4854 47.5014C57.4717 48.7412 58.0059 50.2802 58.0001 51.8644V62.5001Z" fill="#222222"/>
</g>
<defs>
<clipPath id="clip0_2718_5791">
<rect width="64" height="64" fill="white" transform="translate(0 0.5)"/>
</clipPath>
</defs>
</svg>
