<svg width="65" height="65" viewBox="0 0 65 65" fill="none" xmlns="http://www.w3.org/2000/svg">
<g clip-path="url(#clip0_2793_1814)">
<path d="M54.5843 50.5076C52.5302 44.6723 46.9937 40.7524 40.8068 40.7524C29.2648 40.7524 32.7936 40.7524 24.1942 40.7524C18.0075 40.7524 12.4708 44.6723 10.4167 50.5076L8.03745 57.2616C6.79745 60.7814 9.3952 64.4911 13.1562 64.4911H51.8447C55.5853 64.4911 58.2102 60.8006 56.9635 57.2616L54.5843 50.5076ZM34.2453 54.5308L32.5007 56.2062L30.7561 54.5308L31.7307 46.8192C31.98 46.8731 32.2338 46.9118 32.4958 46.9118C32.7611 46.9118 33.0183 46.8732 33.2706 46.8182L34.2453 54.5308ZM34.6915 42.7518C34.3761 43.9927 33.4985 44.9123 32.4958 44.9123C31.4776 44.9123 30.6106 44.0063 30.3041 42.7518H34.6915ZM51.845 62.4916H13.1563C10.7903 62.4916 9.13658 60.1581 9.92383 57.9254L12.3031 51.1714C14.0761 46.1357 18.854 42.7519 24.1943 42.7519H28.2708C28.4736 43.9823 29.052 45.0411 29.8455 45.7897L28.7098 54.7789C28.6708 55.0923 28.7811 55.4057 29.0096 55.6244L31.8086 58.3132C32.1916 58.6826 32.8041 58.6883 33.193 58.3132L35.992 55.6244C36.2205 55.4057 36.3307 55.0923 36.2917 54.7789L35.1556 45.7863C35.9489 45.0377 36.5273 43.9806 36.7303 42.7519H40.8071C46.1474 42.7519 50.9253 46.1358 52.6983 51.1714L55.0776 57.9254C55.8641 60.1564 54.2125 62.4916 51.845 62.4916Z" fill="#222222"/>
<path d="M20.8409 25.3586C20.8442 25.3699 20.8512 25.3786 20.8551 25.3896C21.4239 31.5538 26.5196 35.6385 29.6315 37.5789C31.4005 38.6809 33.6001 38.6821 35.3711 37.5789C38.4842 35.6386 43.5836 31.551 44.1489 25.3819C44.1517 25.373 44.16 25.3676 44.1626 25.3586L46.1015 18.9308C47.8777 13.0431 44.0911 6.90839 38.0451 5.89726C34.4104 5.29201 30.7082 5.29876 27.0365 5.91676C20.9384 6.94914 17.135 13.0725 18.9109 18.962L20.8409 25.3586ZM34.3126 35.8821C33.1977 36.5793 31.8085 36.5801 30.6896 35.8821C27.7422 34.0448 22.7972 30.0918 22.7972 24.2574C22.7972 23.1805 22.9007 22.1105 23.1057 21.0746C23.5821 18.672 25.733 16.9283 28.2196 16.9283H36.7836C39.2702 16.9283 41.421 18.6719 41.8975 21.0746C42.1025 22.1105 42.206 23.1805 42.206 24.2574C42.206 30.0918 37.2611 34.0448 34.3126 35.8821ZM27.3702 7.88889C30.8195 7.30501 34.301 7.29926 37.715 7.86939C42.5761 8.68239 45.6136 13.6211 44.1879 18.3528L43.6737 20.0568C42.781 17.0563 39.9977 14.9289 36.7836 14.9289H28.2196C25.0052 14.9289 22.222 17.0565 21.3294 20.0576L20.8242 18.384C19.3952 13.6431 22.4637 8.71751 27.3702 7.88889Z" fill="#222222"/>
<path d="M63.3717 5.94679H61.3557L64.2856 2.11579C64.7883 1.46029 64.3193 0.508789 63.4918 0.508789H57.6136C57.2533 0.508789 56.9213 0.702039 56.7437 1.01554L52.1952 9.03291C51.8185 9.70004 52.3009 10.5257 53.0651 10.5257H55.3272C52.2148 18.0324 52.2148 18.1027 52.2148 18.3535C52.2148 19.2718 53.3544 19.702 53.9614 19.0184L64.1188 7.61141C64.6898 6.96979 64.2341 5.94679 63.3717 5.94679ZM56.317 13.3667C56.8159 12.156 57.3246 10.9279 57.7473 9.90866C58.0199 9.25116 57.5369 8.52629 56.8237 8.52629H54.7813L58.1954 2.50841H61.4689L58.539 6.33929C58.0363 6.99479 58.5053 7.94629 59.3328 7.94629H61.1428L56.317 13.3667Z" fill="#222222"/>
<path d="M12.7861 18.3535C12.7861 18.1027 12.7861 18.0323 9.67371 10.5265H11.9358C12.6986 10.5265 13.183 9.70179 12.8057 9.03379L8.25709 1.01554C8.07946 0.702164 7.74746 0.508789 7.38721 0.508789H1.50896C0.682839 0.508789 0.211589 1.45916 0.715214 2.11579L3.64509 5.94779H1.62909C0.766839 5.94779 0.310964 6.97066 0.882214 7.61241L11.0396 19.0184C11.6418 19.6968 12.7861 19.2813 12.7861 18.3535ZM3.85796 7.94729H5.66796C6.49409 7.94729 6.96534 6.99691 6.46171 6.34029L3.53184 2.50829H6.80534L10.2195 8.52716H8.17709C7.46471 8.52716 6.98034 9.25166 7.25346 9.91054C7.67621 10.9288 8.18484 12.157 8.68371 13.3667L3.85796 7.94729Z" fill="#222222"/>
</g>
<defs>
<clipPath id="clip0_2793_1814">
<rect width="64" height="64" fill="white" transform="translate(0.5 0.5)"/>
</clipPath>
</defs>
</svg>
