<svg width="64" height="65" viewBox="0 0 64 65" fill="none" xmlns="http://www.w3.org/2000/svg">
<path d="M59.5056 28.4028C59.2606 21.4218 56.4336 14.8938 51.4696 9.92984C46.2666 4.72584 39.3516 1.86084 31.9996 1.86084C17.1506 1.86084 5.01758 13.6798 4.49458 28.4028C2.22858 29.4098 0.642578 31.6778 0.642578 34.3138V41.5758C0.642578 45.1418 3.54358 48.0438 7.11058 48.0438C9.41858 48.0438 11.2956 46.1668 11.2956 43.8588V32.0298C11.2956 29.8628 9.63358 28.0958 7.52058 27.8858C8.30058 15.0588 18.9786 4.86084 31.9996 4.86084C38.5516 4.86084 44.7126 7.41484 49.3496 12.0518C53.6076 16.3098 56.0996 21.8598 56.4746 27.8868C54.3636 28.0988 52.7046 29.8648 52.7046 32.0298V43.8578C52.7046 46.0428 54.3926 47.8208 56.5306 48.0058V50.9948C56.5306 54.3608 53.7916 57.0988 50.4256 57.0988H45.9046C45.6826 56.4648 45.3346 55.8788 44.8466 55.3928C43.9916 54.5338 42.8516 54.0608 41.6376 54.0608H36.9776C36.3086 54.0608 35.6666 54.2028 35.0786 54.4768C33.4746 55.2138 32.4386 56.8318 32.4386 58.5988C32.4386 59.8128 32.9116 60.9528 33.7686 61.8058C34.6256 62.6648 35.7656 63.1378 36.9776 63.1378H41.6376C43.5696 63.1378 45.2726 61.8888 45.9076 60.0988H50.4256C55.4466 60.0988 59.5306 56.0148 59.5306 50.9948V47.4718C61.7826 46.4588 63.3566 44.1988 63.3566 41.5738V34.3118C63.3566 31.6778 61.7706 29.4098 59.5056 28.4028ZM8.29458 32.0298V43.8578C8.29458 44.5108 7.76358 45.0428 7.10958 45.0428C5.19758 45.0428 3.64158 43.4868 3.64158 41.5748V34.3128C3.64158 32.3998 5.19758 30.8448 7.10958 30.8448C7.76358 30.8448 8.29458 31.3768 8.29458 32.0298ZM43.1426 58.9208C42.9936 59.6268 42.3596 60.1398 41.6366 60.1398H36.9766C36.5666 60.1398 36.1816 59.9798 35.8876 59.6858C35.5976 59.3968 35.4376 59.0108 35.4376 58.6008C35.4376 58.0018 35.7886 57.4548 36.3386 57.2018C36.5346 57.1098 36.7496 57.0628 36.9766 57.0628H41.6366C42.0466 57.0628 42.4316 57.2218 42.7246 57.5158C43.0146 57.8048 43.1746 58.1908 43.1746 58.6008C43.1756 58.7108 43.1636 58.8208 43.1426 58.9208ZM60.3566 41.5748C60.3566 43.4868 58.8006 45.0428 56.8886 45.0428C56.2356 45.0428 55.7036 44.5118 55.7036 43.8578V32.0298C55.7036 31.3768 56.2346 30.8448 56.8886 30.8448C58.8006 30.8448 60.3566 32.4008 60.3566 34.3128V41.5748Z" fill="#222222"/>
<path d="M41.7117 42.0917C45.2167 42.0917 48.0677 39.2397 48.0677 35.7357V22.7847C48.0677 21.0907 47.4057 19.4947 46.2037 18.2927C45.0017 17.0907 43.4067 16.4287 41.7117 16.4287H22.2857C18.7807 16.4287 15.9297 19.2797 15.9297 22.7847V35.7357C15.9297 39.2407 18.7807 42.0917 22.2857 42.0917H22.4047V45.4477C22.4047 46.7277 23.1677 47.8637 24.3477 48.3427C24.7287 48.4957 25.1247 48.5717 25.5167 48.5717C26.3337 48.5717 27.1297 48.2477 27.7127 47.6447L33.2957 42.0917H41.7117ZM31.6207 39.5277L25.5787 45.5367C25.5517 45.5647 25.5317 45.5857 25.4747 45.5607C25.4057 45.5327 25.4057 45.4877 25.4057 45.4477V40.5917C25.4057 39.7637 24.7347 39.0917 23.9057 39.0917H22.2867C20.4357 39.0917 18.9307 37.5857 18.9307 35.7357V22.7847C18.9307 20.9337 20.4357 19.4287 22.2867 19.4287H41.7127C42.6067 19.4287 43.4477 19.7787 44.0837 20.4137C44.7197 21.0497 45.0687 21.8917 45.0687 22.7847V35.7357C45.0687 37.5867 43.5627 39.0917 41.7127 39.0917H32.6787C32.2817 39.0917 31.9017 39.2487 31.6207 39.5277Z" fill="#222222"/>
<path d="M24.713 27.2866C23.493 27.2866 22.5 28.2806 22.5 29.4996C22.5 30.7186 23.494 31.7126 24.713 31.7126C25.934 31.7126 26.928 30.7186 26.928 29.4996C26.928 28.2806 25.935 27.2866 24.713 27.2866Z" fill="#222222"/>
<path d="M31.9982 27.2866C30.7782 27.2866 29.7852 28.2806 29.7852 29.4996C29.7852 30.7186 30.7792 31.7126 31.9982 31.7126C33.2202 31.7126 34.2132 30.7186 34.2132 29.4996C34.2132 28.2806 33.2202 27.2866 31.9982 27.2866Z" fill="#222222"/>
<path d="M39.2853 27.2866C38.0653 27.2866 37.0723 28.2806 37.0723 29.4996C37.0723 30.7186 38.0663 31.7126 39.2853 31.7126C40.5063 31.7126 41.5003 30.7186 41.5003 29.4996C41.5003 28.2806 40.5063 27.2866 39.2853 27.2866Z" fill="#222222"/>
</svg>
