<svg width="65" height="65" viewBox="0 0 65 65" fill="none" xmlns="http://www.w3.org/2000/svg">
<path d="M56.5 35.3999V33.3999C57.052 33.3999 57.5 32.9522 57.5 32.3999V26.3999C57.5 25.8476 57.052 25.3999 56.5 25.3999H51.1L50.9063 24.6487C50.4641 22.9308 49.7774 21.2851 48.866 19.7628L48.466 19.0937L52.3 15.253C52.6859 14.8663 52.6859 14.2397 52.3 13.853L48.0531 9.5999C47.6609 9.22607 47.0449 9.22607 46.6527 9.5999L42.8117 13.4409L42.143 13.0409C40.6184 12.1292 38.9711 11.4425 37.2508 10.9999L36.5 10.8046V5.3999C36.5 4.84756 36.0523 4.3999 35.5 4.3999H29.5C28.9477 4.3999 28.5 4.84756 28.5 5.3999V10.7999L27.7488 10.994C26.0309 11.4358 24.3852 12.1226 22.8621 13.0327L22.193 13.4331L18.3531 9.5999C17.9605 9.22295 17.3406 9.22295 16.948 9.5999L12.7 13.8468C12.5133 14.0331 12.4082 14.2862 12.4082 14.5499C12.4082 14.814 12.5133 15.0667 12.7 15.253L16.541 19.0937L16.141 19.7628C15.2301 21.2851 14.543 22.9308 14.1012 24.6487L13.9051 25.3999H8.5C7.94766 25.3999 7.5 25.8476 7.5 26.3999V32.3999C7.5 32.9522 7.94766 33.3999 8.5 33.3999V35.3999C6.84336 35.3999 5.5 34.0565 5.5 32.3999V26.3999C5.5 24.7433 6.84336 23.3999 8.5 23.3999H12.3691C12.7816 22.0171 13.3395 20.6819 14.0332 19.4171L11.2832 16.6671C10.7207 16.1058 10.4047 15.344 10.4047 14.5499C10.4047 13.7558 10.7207 12.994 11.2832 12.4331L15.5332 8.18311C16.7172 7.0499 18.584 7.0499 19.768 8.18311L22.5172 10.9319C23.782 10.2386 25.1176 9.68193 26.5 9.26982V5.3999C26.5 3.74326 27.8434 2.3999 29.5 2.3999H35.5C37.1566 2.3999 38.5 3.74326 38.5 5.3999V9.26982C39.8828 9.68193 41.2176 10.2397 42.4828 10.9331L45.2328 8.18311C46.4172 7.0499 48.2836 7.0499 49.468 8.18311L53.7172 12.4319C54.2793 12.9933 54.5949 13.7542 54.5949 14.5487C54.5949 15.3433 54.2793 16.105 53.7172 16.6659L50.9672 19.4159C51.6606 20.6815 52.218 22.0171 52.6309 23.3999H56.5C58.1567 23.3999 59.5 24.7433 59.5 26.3999V32.3999C59.5 34.0565 58.1567 35.3999 56.5 35.3999Z" fill="#222222"/>
<path d="M46.5 29.3999H44.5C44.5 22.7726 39.1273 17.3999 32.5 17.3999C25.8727 17.3999 20.5 22.7726 20.5 29.3999H18.5C18.5 21.6679 24.768 15.3999 32.5 15.3999C40.2316 15.3999 46.5 21.6679 46.5 29.3999Z" fill="#222222"/>
<path d="M32.5 37.3999C29.1863 37.3999 26.5 34.7132 26.5 31.3999C26.5 28.0862 29.1863 25.3999 32.5 25.3999C35.8141 25.3999 38.5 28.0862 38.5 31.3999C38.4965 34.7124 35.8125 37.3964 32.5 37.3999ZM32.5 27.3999C30.291 27.3999 28.5 29.1909 28.5 31.3999C28.5 33.6089 30.291 35.3999 32.5 35.3999C34.709 35.3999 36.5 33.6089 36.5 31.3999C36.5 29.1909 34.709 27.3999 32.5 27.3999Z" fill="#222222"/>
<path d="M49.5 41.3999C46.1863 41.3999 43.5 38.7132 43.5 35.3999C43.5 32.0862 46.1863 29.3999 49.5 29.3999C52.8137 29.3999 55.5 32.0862 55.5 35.3999C55.4965 38.7124 52.8125 41.3964 49.5 41.3999ZM49.5 31.3999C47.291 31.3999 45.5 33.1909 45.5 35.3999C45.5 37.6089 47.291 39.3999 49.5 39.3999C51.709 39.3999 53.5 37.6089 53.5 35.3999C53.5 33.1909 51.709 31.3999 49.5 31.3999Z" fill="#222222"/>
<path d="M15.5 41.3999C12.1863 41.3999 9.5 38.7132 9.5 35.3999C9.5 32.0862 12.1863 29.3999 15.5 29.3999C18.8141 29.3999 21.5 32.0862 21.5 35.3999C21.4965 38.7124 18.8125 41.3964 15.5 41.3999ZM15.5 31.3999C13.291 31.3999 11.5 33.1909 11.5 35.3999C11.5 37.6089 13.291 39.3999 15.5 39.3999C17.709 39.3999 19.5 37.6089 19.5 35.3999C19.5 33.1909 17.709 31.3999 15.5 31.3999Z" fill="#222222"/>
<path d="M58.5656 43.9656C57.0754 42.9414 55.3086 42.3949 53.5 42.4H45.5C45.0137 42.4043 44.5281 42.4484 44.0488 42.5316C43.409 41.5308 42.5766 40.6675 41.6 39.9906C41.4535 39.88 41.2996 39.7796 41.1391 39.691C39.7402 38.8437 38.1352 38.3976 36.5 38.4H28.5C25.4418 38.389 22.5922 39.9496 20.9539 42.5316C20.4734 42.4484 19.9871 42.4043 19.5 42.4H11.5C9.69297 42.3949 7.92656 42.9406 6.43711 43.9636C3.97539 45.6386 2.50156 48.4226 2.5 51.4V55.4C2.50352 58.1304 4.09219 60.6101 6.57227 61.7539C7.48789 62.1851 8.48828 62.4058 9.5 62.4H19.5V60.4H10.5V49.4H8.5V60.2996C8.12344 60.2242 7.75781 60.1023 7.41094 59.9379C5.63945 59.1211 4.50391 57.3504 4.5 55.4V51.4C4.50234 49.0828 5.65039 46.9168 7.56602 45.6136C8.72344 44.8191 10.0957 44.3961 11.5 44.4H19.5C19.6762 44.4 19.8461 44.4187 20.018 44.4304C19.6797 45.3843 19.5043 46.3882 19.5 47.4V57.4C19.5035 60.1601 21.7402 62.3964 24.5 62.4H27.5V46.4H25.5V60.4H24.5C22.8434 60.4 21.5 59.0566 21.5 57.4V47.4C21.5 43.5336 24.6344 40.4 28.5 40.4H36.5C37.7867 40.4007 39.0477 40.757 40.1449 41.4289C40.2465 41.4843 40.3441 41.5468 40.4367 41.6156C41.3738 42.2574 42.143 43.1148 42.6789 44.1156C43.2176 45.1265 43.5 46.2543 43.5 47.4V57.4C43.5 59.0566 42.1566 60.4 40.5 60.4H39.5V46.4H37.5V62.4H40.5C43.2602 62.3964 45.4965 60.1601 45.5 57.4V47.4C45.4953 46.3882 45.3207 45.3847 44.9828 44.4304C45.1551 44.4187 45.325 44.4 45.5 44.4H53.5C54.9051 44.3961 56.2785 44.8203 57.4367 45.6156C59.3508 46.9195 60.4973 49.0839 60.5 51.4V55.4C60.4965 57.3574 59.3524 59.1332 57.5723 59.9457C57.2305 60.1074 56.8703 60.2261 56.5 60.2996V49.4H54.5V60.4H45.5V62.4H55.5C56.5059 62.4062 57.5004 62.1882 58.4109 61.7617C60.8992 60.6214 62.4961 58.1371 62.5 55.4V51.4C62.4984 48.4238 61.0258 45.641 58.5656 43.9656Z" fill="#222222"/>
<path d="M28.5 60.3999H36.5V62.3999H28.5V60.3999Z" fill="#222222"/>
</svg>
