<svg width="65" height="65" viewBox="0 0 65 65" fill="none" xmlns="http://www.w3.org/2000/svg">
<path fill-rule="evenodd" clip-rule="evenodd" d="M34.8313 24.4229L30.9205 28.9845C30.5684 29.3952 29.9487 29.3993 29.5949 28.992L27.504 26.604C27.1847 26.2418 27.2216 25.6873 27.5867 25.3693C27.9505 25.0514 28.505 25.0883 28.8244 25.4506L30.2468 27.0771L33.4989 23.2843C33.8132 22.9147 34.3677 22.8702 34.735 23.1882C35.104 23.4987 35.1463 24.0532 34.8313 24.4229ZM55.5654 55.9244C56.1338 54.2018 56.1213 51.9321 56.1056 49.3076L56.104 43.5484C56.104 42.92 55.5931 42.4024 54.9632 42.4025C54.3355 42.4025 53.8239 42.92 53.824 43.5485C53.824 44.029 53.4308 44.421 52.9465 44.421C52.4623 44.421 52.0689 44.0291 52.0689 43.5485V41.7742C52.0689 41.1458 51.5581 40.6282 50.9296 40.6283C50.3005 40.6283 49.7888 41.1458 49.7888 41.7743C49.7888 42.2548 49.3956 42.6467 48.9113 42.6467C48.4271 42.6467 48.0337 42.2549 48.0337 41.7744V39.9927C48.0337 39.3643 47.5229 38.8541 46.8944 38.8541C46.2645 38.8541 45.7536 39.3643 45.7536 39.9927C45.7536 40.4806 45.3603 40.8725 44.8761 40.8725C44.3919 40.8725 43.9985 40.4807 43.9985 39.9928L43.9983 29.7903C43.9983 29.3911 43.7993 29.051 43.4962 28.844C42.9026 28.3749 41.7192 28.7552 41.7182 29.7903L41.6985 40.0224L41.6943 48.6575C41.6923 49.5138 40.5594 49.8629 40.0818 49.1307L37.1821 44.7023C36.9744 44.3843 36.4583 44.1035 35.9807 44.0518C35.4322 44.0222 35.4795 44.1509 35.2459 44.2958C34.6005 44.7171 34.4164 45.5896 34.8378 46.2328L40.9736 55.6367C42.7377 59.5623 46.8993 59.7767 48.6042 59.6879C51.9244 59.5102 54.917 57.8985 55.5654 55.9244ZM39.7502 35.9561L39.9513 35.7565L39.9629 29.7829C39.9629 28.1934 41.2619 26.8921 42.8587 26.8921C43.2771 26.8921 43.6742 26.9808 44.0342 27.1435L44.5096 26.9883V24.4672L42.1438 23.6984C41.8583 23.6097 41.6404 23.3731 41.5656 23.0848C41.3172 22.1236 40.935 21.1996 40.4271 20.342C40.2755 20.0833 40.2644 19.7653 40.4012 19.4918L41.5308 17.2812L39.7498 15.4996L37.5326 16.6235C37.2649 16.7639 36.9464 16.7566 36.6883 16.6013C35.8292 16.0912 34.9058 15.7068 33.9432 15.4629C33.6534 15.389 33.4198 15.1672 33.3273 14.8862L32.559 12.5205H30.0395L29.2713 14.8864C29.1789 15.1673 28.9461 15.3891 28.6563 15.463C27.693 15.707 26.7696 16.0915 25.9112 16.6016C25.6525 16.7568 25.333 16.7643 25.0662 16.6238L22.8489 15.5001L21.0687 17.2819L22.1977 19.4924C22.3345 19.766 22.3241 20.0839 22.1718 20.3426C21.6639 21.2002 21.2803 22.1244 21.0334 23.0855C20.9588 23.3739 20.7414 23.6105 20.4552 23.6992L18.0902 24.4681V26.9891L20.4552 27.7579C20.7413 27.8466 20.9586 28.0832 21.0334 28.3715C21.2818 29.3327 21.664 30.2567 22.172 31.1143C22.3243 31.373 22.3346 31.691 22.1978 31.9645L21.069 34.1751L22.8493 35.9567L25.0665 34.8329C25.335 34.6924 25.6528 34.6997 25.9116 34.855C26.7714 35.3651 27.6949 35.7495 28.6567 35.9934C28.9465 36.0674 29.1793 36.2891 29.2719 36.5701L30.04 38.9358H32.5595L33.3277 36.5699C33.4201 36.289 33.6537 36.0672 33.9435 35.9933C34.906 35.7493 35.8294 35.3648 36.6884 34.8547C36.9465 34.6995 37.2651 34.6921 37.5327 34.8325L39.7502 35.9561ZM57.8608 49.3002L57.8591 43.5484C57.8591 41.404 55.6096 40.0162 53.7019 40.9387C53.1931 39.2394 51.2735 38.389 49.6667 39.1645C49.1689 37.5019 47.3027 36.6506 45.7535 37.3385L45.7534 29.79C45.7534 29.3317 45.6491 28.9029 45.4628 28.5259L45.6573 28.4594C46.0187 28.3411 46.2642 28.0084 46.2642 27.6239L46.2641 23.8313C46.2641 23.4542 46.0186 23.1141 45.6571 22.9958L43.1346 22.1752C42.895 21.3767 42.5757 20.6078 42.1786 19.8759L43.3836 17.5101C43.5559 17.17 43.4915 16.7561 43.2224 16.4898L40.5393 13.8063C40.2701 13.5402 39.8599 13.4736 39.5206 13.6437L37.1555 14.8489C36.4213 14.4496 35.6488 14.1318 34.851 13.8953L34.0303 11.3669C33.9134 11.0121 33.5764 10.7607 33.1963 10.7607L29.4022 10.7608C29.0221 10.7608 28.685 11.0122 28.5682 11.367L27.7476 13.8955C26.9499 14.1321 26.1781 14.45 25.4432 14.8492L23.0782 13.6443C22.7389 13.4741 22.3285 13.5407 22.0594 13.8069L19.3766 16.4907C19.1075 16.7568 19.0439 17.1709 19.2154 17.511L20.4205 19.8768C20.0242 20.6087 19.7042 21.3776 19.4646 22.1761L16.9421 22.9968C16.5807 23.1151 16.3352 23.4552 16.3352 23.8323L16.3353 27.6249C16.3353 28.0093 16.5808 28.342 16.9423 28.4604L19.4648 29.281C19.7044 30.0795 20.0245 30.8483 20.4208 31.5877L19.2158 33.9535C19.0443 34.2862 19.1079 34.7003 19.3769 34.9664L22.06 37.65C22.3291 37.9235 22.7394 37.9827 23.0787 37.8126L25.4438 36.6075C26.1794 37.0067 26.9506 37.3245 27.7483 37.5612L28.569 40.0896C28.6859 40.4518 29.0229 40.6958 29.4029 40.6958L33.1971 40.6956C33.5771 40.6956 33.9143 40.4517 34.031 40.0894L34.8516 37.5609C35.6493 37.3243 36.4219 37.0064 37.156 36.6072L39.5211 37.8122C39.6564 37.8787 39.8028 37.9083 39.9477 37.9083L39.9398 45.7081L38.6511 43.7415C38.152 42.9801 37.1753 42.4181 36.1611 42.3073C35.39 42.2334 34.7032 42.433 34.2152 42.8766C32.8157 43.8452 32.4342 45.76 33.3695 47.1942L39.4018 56.4207C40.8671 59.6071 44.0507 61.4553 48.0134 61.4552C52.2205 61.4551 56.2796 59.3793 57.2324 56.4795C57.8897 54.4754 57.8756 52.08 57.8608 49.3002ZM28.9508 55.0305C28.9508 55.511 28.5575 55.9029 28.0733 55.9029L11.773 55.9033C11.2872 55.9033 10.8954 55.5115 10.8954 55.0309C10.8954 54.5429 11.2872 54.1511 11.773 54.1511L28.0733 54.1507C28.5575 54.1507 28.9508 54.5426 28.9508 55.0305ZM28.9507 50.9496C28.9507 51.4375 28.5574 51.8293 28.0731 51.8293L22.4418 51.8295C21.9576 51.8295 21.5642 51.4377 21.5642 50.9497C21.5642 50.4692 21.9576 50.0773 22.4418 50.0773L28.0731 50.0771C28.5574 50.0771 28.9507 50.469 28.9507 50.9496ZM28.951 59.1042C28.951 59.5847 28.5576 59.984 28.0734 59.984H26.0351C25.5509 59.984 25.1576 59.5847 25.1576 59.1042C25.1576 58.6163 25.5508 58.2243 26.0351 58.2243H28.0734C28.5576 58.2243 28.951 58.6163 28.951 59.1042ZM22.8376 59.1043C22.8376 59.5849 22.4443 59.9841 21.96 59.9841L11.773 59.9843C11.2872 59.9843 10.8954 59.5851 10.8954 59.1046C10.8954 58.6167 11.2872 58.2247 11.773 58.2247L21.96 58.2245C22.4442 58.2245 22.8376 58.6164 22.8376 59.1043ZM11.7728 50.0775L18.3668 50.0774C18.851 50.0774 19.2443 50.4692 19.2443 50.9497C19.2443 51.4377 18.851 51.8295 18.3668 51.8295L11.7728 51.8296C11.2871 51.8296 10.8953 51.4378 10.8953 50.9498C10.8953 50.4695 11.2871 50.0777 11.7728 50.0775ZM12.4285 14.0583C16.4831 7.52278 23.5948 3.54505 31.2999 3.54492C37.9238 3.54479 44.1155 6.46767 48.3427 11.5291L48.1978 9.38505C48.1653 8.89711 48.5305 8.48303 49.0133 8.44604C49.4953 8.41647 49.9153 8.77871 49.9485 9.26665L50.3005 14.5824C50.2921 14.749 50.227 14.8961 50.1378 15.0333C50.137 15.0333 50.137 15.0333 50.1356 15.0333L50.061 15.122L49.9997 15.1811C49.9945 15.1886 49.9871 15.196 49.9805 15.196L49.9072 15.2551C49.9006 15.2551 49.8947 15.2626 49.888 15.27L49.6574 15.3661C49.575 15.3756 49.4445 15.4217 49.2907 15.3883L44.1488 14.2942C43.6742 14.1907 43.3717 13.725 43.4731 13.2518C43.5743 12.7786 44.0401 12.4755 44.514 12.579L47.4417 13.2C43.5839 8.21718 37.6952 5.29699 31.3001 5.29711C24.1746 5.29724 17.6785 8.92003 13.9207 14.9825C13.6656 15.3966 13.1238 15.5223 12.7119 15.2709C12.2998 15.0121 12.1735 14.4724 12.4285 14.0583ZM29.012 46.9351C28.9391 47.43 28.4679 47.7464 28.0154 47.6745C22.597 46.8687 17.7241 44.0965 14.2575 39.9342L14.4017 42.0707C14.4359 42.5793 14.037 43.0096 13.5257 43.0098C13.0681 43.0098 12.6828 42.6549 12.6511 42.1891L12.3005 36.8736C12.3244 36.6679 12.3509 36.5999 12.4616 36.4226H12.4653L12.5385 36.3339L12.5999 36.2748L12.7122 36.1861C12.7838 36.1861 12.8405 36.0206 13.3576 36.0751L18.4523 37.1617C18.9255 37.2652 19.2278 37.7309 19.1273 38.2041C19.0267 38.6773 18.5595 38.9804 18.0857 38.8769L15.1595 38.256C18.3741 42.4034 23.0489 45.1609 28.2728 45.937C28.7526 46.011 29.0837 46.4545 29.012 46.9351ZM12.244 31.2029L7.39333 26.3458C7.04863 26.0025 7.05375 25.4492 7.39333 25.1111L12.2438 20.2611C12.5868 19.9136 13.1421 19.9136 13.4836 20.2611C13.8266 20.6012 13.8266 21.1557 13.4836 21.4958L9.25483 25.7322L13.4838 29.9609C14.0281 30.5027 13.6574 31.4543 12.8643 31.4543C12.6397 31.4543 12.4149 31.373 12.244 31.2029ZM50.3552 20.2602L55.2067 25.11C55.5483 25.4493 55.5513 26.0023 55.2067 26.3447L50.3555 31.202C50.0186 31.5384 49.4485 31.5362 49.1157 31.202C48.7727 30.8545 48.7727 30.3001 49.1157 29.96L53.3452 25.731L49.1154 21.4949C48.7724 21.1548 48.7724 20.6003 49.1154 20.2602C49.4585 19.9128 50.013 19.9128 50.3552 20.2602ZM31.3005 31.9491C34.7295 31.949 37.5188 29.1544 37.5188 25.7314C37.5186 22.301 34.7293 19.5065 31.3003 19.5066C27.8706 19.5068 25.0805 22.3014 25.0806 25.7318C25.0806 29.1548 27.8709 31.9493 31.3005 31.9491ZM31.3001 17.7545C26.9019 17.7546 23.3254 21.3328 23.3254 25.7318C23.3255 30.1234 26.9023 33.7015 31.3005 33.7013C35.6972 33.7012 39.2739 30.1228 39.2738 25.7314C39.2738 21.3324 35.6969 17.7543 31.3001 17.7545Z" fill="#222222"/>
</svg>
