<svg width="65" height="65" viewBox="0 0 65 65" fill="none" xmlns="http://www.w3.org/2000/svg">
<path d="M0.499739 31.3727C0.488335 31.6554 0.534662 31.9375 0.635894 32.2018C0.737126 32.4661 0.89114 32.7069 1.08854 32.9097C1.2909 33.1176 1.53287 33.2829 1.80017 33.3958C2.06746 33.5086 2.35466 33.5668 2.64481 33.5668H5.84481C6.3982 33.5609 6.92819 33.3427 7.32523 32.9572C7.72227 32.5716 7.95601 32.0483 7.97814 31.4953C8.06545 29.2863 8.46036 27.1003 9.15147 25.0004L26.3525 34.2548C26.7442 35.606 27.5686 36.7914 28.6992 37.6286L12.5776 61.3908C12.3746 61.6917 12.2574 62.0423 12.2386 62.4048C12.2198 62.7673 12.3001 63.1281 12.4709 63.4484C12.638 63.7652 12.8882 64.0305 13.1948 64.2158C13.5013 64.4011 13.8525 64.4994 14.2107 64.5001H50.7888C51.1475 64.5 51.4994 64.402 51.8065 64.2166C52.1137 64.0313 52.3644 63.7657 52.5317 63.4484C52.7026 63.1281 52.7829 62.7673 52.7641 62.4048C52.7453 62.0423 52.6281 61.6917 52.4251 61.3908L36.2992 37.6286C37.5692 36.6916 38.4472 35.3175 38.7641 33.7713C39.0809 32.2252 38.814 30.6164 38.015 29.2554C37.2159 27.8943 35.9412 26.8773 34.4367 26.4005C32.9322 25.9236 31.3044 26.0207 29.8672 26.6729L10.7248 21.2127C13.214 16.4065 17.2226 12.5583 22.1264 10.2676C27.0303 7.9768 32.554 7.37199 37.8374 8.54734C43.1207 9.72269 47.8671 12.6122 51.3373 16.7659C54.8074 20.9196 56.8066 26.1042 57.0235 31.5124C57.0488 32.0627 57.2841 32.5824 57.6809 32.9645C58.0778 33.3466 58.6059 33.5622 59.1568 33.5668H62.3568C62.6466 33.5665 62.9334 33.5082 63.2003 33.3954C63.4672 33.2825 63.7088 33.1174 63.9109 32.9097C64.1082 32.7073 64.2621 32.4668 64.3633 32.2029C64.4646 31.939 64.511 31.6572 64.4997 31.3748C64.2203 23.0743 60.7264 15.2072 54.7558 9.4342C48.7852 3.6612 40.8049 0.434082 32.4997 0.434082C24.1946 0.434082 16.2143 3.6612 10.2437 9.4342C4.27305 15.2072 0.779214 23.0743 0.499739 31.3748V31.3727ZM5.84481 31.4335L2.63307 31.4505C2.86175 24.252 5.69312 17.3807 10.6021 12.1108L12.9221 14.4308C11.1623 16.329 9.68896 18.4739 8.54881 20.7977C8.23382 20.8545 7.93813 20.9895 7.68883 21.1902C7.43953 21.391 7.24459 21.6511 7.12189 21.9467C6.99918 22.2423 6.95263 22.564 6.9865 22.8822C7.02037 23.2005 7.13357 23.5052 7.31574 23.7684C6.44166 26.2346 5.94573 28.8189 5.84481 31.4335ZM14.4933 62.3668L32.4997 35.8281L50.5061 62.3668H14.4933ZM36.7664 32.5001C36.7639 33.1506 36.6126 33.792 36.3242 34.375C36.0358 34.9581 35.6179 35.4676 35.1024 35.8644L34.1328 34.4351C33.9526 34.1678 33.7094 33.9488 33.4248 33.7974C33.1401 33.6461 32.8227 33.5669 32.5003 33.5669C32.1779 33.5669 31.8604 33.6461 31.5758 33.7974C31.2911 33.9488 31.048 34.1678 30.8677 34.4351L29.8971 35.8654C29.3246 35.4224 28.8745 34.8409 28.589 34.1757C28.3036 33.5105 28.1923 32.7836 28.2657 32.0635C28.3391 31.3434 28.5947 30.6538 29.0084 30.0598C29.4221 29.4659 29.9803 28.9871 30.6303 28.6686C31.2803 28.3502 32.0008 28.2025 32.7237 28.2397C33.4466 28.2768 34.1481 28.4975 34.7621 28.8808C35.3761 29.2642 35.8823 29.7977 36.2329 30.4309C36.5836 31.0641 36.7672 31.7763 36.7664 32.5001ZM27.6997 28.2751C26.8443 29.2414 26.3023 30.4447 26.1456 31.7257L10.7451 23.4335L27.6997 28.2751ZM14.4325 12.9246L12.1147 10.6068C17.3836 5.71237 24.2453 2.8894 31.4331 2.65905V5.87292C25.1099 6.13595 19.0854 8.63489 14.4325 12.9246ZM33.5664 5.85905V2.65905C40.7543 2.88882 47.6162 5.71187 52.8848 10.6068L50.6085 12.883C45.947 8.58469 39.9029 6.09358 33.5664 5.85905ZM59.1536 31.4111C58.9158 25.0793 56.4205 19.0415 52.1189 14.3892L54.3973 12.1108C59.303 17.375 62.1306 24.2413 62.3547 31.4335L59.1536 31.4111Z" fill="#222222"/>
</svg>
