<svg width="65" height="65" viewBox="0 0 65 65" fill="none" xmlns="http://www.w3.org/2000/svg">
<path d="M32.8436 61.625H32.155C31.5107 61.625 30.8781 61.5105 30.2746 61.2848C23.6377 58.8017 18.3048 54.7776 14.4238 49.324C11.3762 45.0415 9.26243 39.922 8.14131 34.1079C6.29209 24.5179 7.78953 16.2051 7.85418 15.8559C8.18528 14.0681 9.38449 12.5823 11.0621 11.8815L30.4307 3.78975C31.0894 3.51453 31.7854 3.375 32.4993 3.375C33.2132 3.375 33.9092 3.51453 34.5679 3.78972L53.9364 11.8814C55.6141 12.5824 56.8133 14.0681 57.1443 15.8558C57.209 16.2051 58.7062 24.5189 56.8572 34.1078C55.7361 39.922 53.6223 45.0414 50.5747 49.324C46.6938 54.7776 41.3608 58.8017 34.7239 61.2847C34.1205 61.5105 33.4878 61.625 32.8436 61.625ZM32.4993 5.375C32.0514 5.375 31.6148 5.46253 31.2016 5.63516L11.8331 13.7269C10.7807 14.1665 10.0284 15.0986 9.82074 16.22C9.7589 16.554 8.32665 24.5062 10.1051 33.7292C11.1716 39.2601 13.1729 44.1168 16.0533 48.1644C19.6986 53.2868 24.7191 57.0709 30.9754 59.4116C31.3539 59.5532 31.7508 59.625 32.1549 59.625H32.8436C33.2477 59.625 33.6446 59.5532 34.0232 59.4115C40.2794 57.0709 45.2999 53.2868 48.9452 48.1644C51.8256 44.1168 53.8269 39.2601 54.8934 33.7292C56.6717 24.5071 55.2396 16.554 55.1778 16.2199C54.9701 15.0986 54.2178 14.1665 53.1654 13.7268L33.7969 5.63513C33.3837 5.46253 32.9471 5.375 32.4993 5.375Z" fill="#222222"/>
<path d="M32.844 57.2586H32.1553C32.0357 57.2586 31.917 57.2371 31.8049 57.1952C25.999 55.0231 21.3482 51.523 17.9817 46.7924C15.2991 43.0227 13.4309 38.4769 12.429 33.2811C11.5432 28.6875 11.5125 24.4211 11.6426 21.651C11.7841 18.6409 12.1331 16.7307 12.1478 16.6509C12.2093 16.3189 12.4341 16.0404 12.7456 15.9102L32.1141 7.81851C32.3608 7.71545 32.6384 7.71545 32.8851 7.81851L52.2536 15.9102C52.5651 16.0404 52.7899 16.3189 52.8514 16.6509C52.8662 16.7307 53.2151 18.6409 53.3566 21.651C53.4868 24.4211 53.456 28.6875 52.5703 33.2811C51.5683 38.4769 49.7002 43.0227 47.0176 46.7924C43.651 51.523 39.0003 55.0231 33.1943 57.1952C33.0823 57.2371 32.9637 57.2586 32.844 57.2586ZM32.3376 55.2586H32.6617C42.4248 51.5466 48.4615 44.026 50.6065 32.9024C51.9819 25.7696 51.237 19.3759 50.9685 17.5409L32.4997 9.82498L14.0305 17.5409C13.92 18.2921 13.7292 19.8054 13.6377 21.8054C13.5158 24.4679 13.5498 28.5646 14.4042 32.961C16.5598 44.0527 22.5924 51.5535 32.3376 55.2586Z" fill="#222222"/>
<path d="M37.3184 44.8789H27.6791C25.0904 44.8789 22.9844 42.7727 22.9844 40.1839V32.3508C22.9844 29.7619 25.0904 27.6558 27.6791 27.6558H37.3184C39.9071 27.6558 42.0131 29.7619 42.0131 32.3508V40.1839C42.0131 42.7727 39.9071 44.8789 37.3184 44.8789ZM27.6791 29.6558C26.1932 29.6558 24.9844 30.8647 24.9844 32.3508V40.1839C24.9844 41.6699 26.1932 42.8789 27.6791 42.8789H37.3184C38.8043 42.8789 40.0131 41.6699 40.0131 40.1839V32.3508C40.0131 30.8647 38.8042 29.6558 37.3184 29.6558H27.6791ZM32.4988 37.4623C30.971 37.4623 29.7281 36.2194 29.7281 34.6917C29.7281 33.1638 30.971 31.9208 32.4988 31.9208C34.0265 31.9208 35.2694 33.1638 35.2694 34.6917C35.2694 36.2194 34.0265 37.4623 32.4988 37.4623ZM32.4988 33.9208C32.0738 33.9208 31.7281 34.2666 31.7281 34.6917C31.7281 35.1166 32.0738 35.4623 32.4988 35.4623C32.9237 35.4623 33.2694 35.1166 33.2694 34.6917C33.2694 34.2666 32.9237 33.9208 32.4988 33.9208Z" fill="#222222"/>
<path d="M38.7262 29.6555C38.1739 29.6555 37.7262 29.2078 37.7262 28.6555V25.5926C37.7262 22.7102 35.3812 20.3652 32.4988 20.3652C29.6165 20.3652 27.2715 22.7102 27.2715 25.5926V28.6555C27.2715 29.2078 26.8238 29.6555 26.2715 29.6555C25.7192 29.6555 25.2715 29.2078 25.2715 28.6555V25.5926C25.2715 23.6621 26.0233 21.8471 27.3883 20.4821C28.7534 19.117 30.5683 18.3652 32.4988 18.3652C34.4293 18.3652 36.2443 19.117 37.6093 20.4821C38.9744 21.8471 39.7262 23.6621 39.7262 25.5926V28.6555C39.7262 29.2078 39.2785 29.6555 38.7262 29.6555Z" fill="#222222"/>
<path d="M32.5 40.4471C31.9477 40.4471 31.5 39.9994 31.5 39.4471V36.4624C31.5 35.9101 31.9477 35.4624 32.5 35.4624C33.0523 35.4624 33.5 35.9101 33.5 36.4624V39.4471C33.5 39.9994 33.0523 40.4471 32.5 40.4471Z" fill="#222222"/>
</svg>
